<svg width="42" height="42" viewBox="0 0 42 42" fill="none" xmlns="http://www.w3.org/2000/svg">
<path d="M10.5 42H14.6836C14.9101 42 15.0938 41.8163 15.0938 41.5898V33.173C15.0938 32.9814 14.96 32.8198 14.7741 32.7733C14.1842 32.6258 13.7528 32.0795 13.7826 31.4372C13.8155 30.731 14.4236 30.1875 15.1305 30.1875H26.8693C27.5763 30.1875 28.1843 30.731 28.2172 31.4372C28.2471 32.0795 27.8156 32.6259 27.2258 32.7733C27.0399 32.8197 26.9061 32.9814 26.9061 33.173V41.5898C26.9061 41.8163 27.0898 42 27.3162 42H31.0897C31.3162 42 31.4998 41.8169 31.4998 41.5904C31.4998 37.6274 31.4998 6.94985 31.4998 7.875C31.4998 7.15009 30.9122 6.5625 30.1873 6.5625H11.8125C11.0876 6.5625 10.5 7.15009 10.5 7.875V42ZM25.5938 11.8125C25.5938 11.0873 26.1811 10.5 26.9062 10.5C27.6314 10.5 28.2188 11.0873 28.2188 11.8125V13.125C28.2188 13.8502 27.6314 14.4375 26.9062 14.4375C26.1811 14.4375 25.5938 13.8502 25.5938 13.125V11.8125ZM25.5938 18.375C25.5938 17.6498 26.1811 17.0625 26.9062 17.0625C27.6314 17.0625 28.2188 17.6498 28.2188 18.375V19.6875C28.2188 20.4127 27.6314 21 26.9062 21C26.1811 21 25.5938 20.4127 25.5938 19.6875V18.375ZM25.5938 24.9375C25.5938 24.2123 26.1811 23.625 26.9062 23.625C27.6314 23.625 28.2188 24.2123 28.2188 24.9375V26.25C28.2188 26.9752 27.6314 27.5625 26.9062 27.5625C26.1811 27.5625 25.5938 26.9752 25.5938 26.25V24.9375ZM19.6875 11.8125C19.6875 11.0873 20.2748 10.5 21 10.5C21.7252 10.5 22.3125 11.0873 22.3125 11.8125V13.125C22.3125 13.8502 21.7252 14.4375 21 14.4375C20.2748 14.4375 19.6875 13.8502 19.6875 13.125V11.8125ZM19.6875 18.375C19.6875 17.6498 20.2748 17.0625 21 17.0625C21.7252 17.0625 22.3125 17.6498 22.3125 18.375V19.6875C22.3125 20.4127 21.7252 21 21 21C20.2748 21 19.6875 20.4127 19.6875 19.6875V18.375ZM19.6875 24.9375C19.6875 24.2123 20.2748 23.625 21 23.625C21.7252 23.625 22.3125 24.2123 22.3125 24.9375V26.25C22.3125 26.9752 21.7252 27.5625 21 27.5625C20.2748 27.5625 19.6875 26.9752 19.6875 26.25V24.9375ZM13.7812 11.8125C13.7812 11.0873 14.3686 10.5 15.0938 10.5C15.8189 10.5 16.4062 11.0873 16.4062 11.8125V13.125C16.4062 13.8502 15.8189 14.4375 15.0938 14.4375C14.3686 14.4375 13.7812 13.8502 13.7812 13.125V11.8125ZM13.7812 18.375C13.7812 17.6498 14.3686 17.0625 15.0938 17.0625C15.8189 17.0625 16.4062 17.6498 16.4062 18.375V19.6875C16.4062 20.4127 15.8189 21 15.0938 21C14.3686 21 13.7812 20.4127 13.7812 19.6875V18.375ZM13.7812 24.9375C13.7812 24.2123 14.3686 23.625 15.0938 23.625C15.8189 23.625 16.4062 24.2123 16.4062 24.9375V26.25C16.4062 26.9752 15.8189 27.5625 15.0938 27.5625C14.3686 27.5625 13.7812 26.9752 13.7812 26.25V24.9375Z" fill="#6544FB"/>
<path d="M18.1289 42H23.8711C24.0976 42 24.2812 41.8163 24.2812 41.5898V33.2227C24.2812 32.9962 24.0976 32.8125 23.8711 32.8125H18.1289C17.9024 32.8125 17.7188 32.9962 17.7188 33.2227V41.5898C17.7188 41.8163 17.9024 42 18.1289 42Z" fill="#6544FB"/>
<path d="M28.2188 1.3125C28.2188 0.58759 27.6312 0 26.9062 0H15.0938C14.3688 0 13.7812 0.58759 13.7812 1.3125V3.52734C13.7812 3.75383 13.9649 3.9375 14.1914 3.9375H27.8086C28.0351 3.9375 28.2188 3.75383 28.2188 3.52734V1.3125Z" fill="#6544FB"/>
<path d="M40.6875 15.0938H34.5352C34.3087 15.0938 34.125 15.2774 34.125 15.5039V41.5898C34.125 41.8163 34.3087 42 34.5352 42H40.6875C41.4124 42 42 41.4124 42 40.6875V16.4062C42 15.6813 41.4124 15.0938 40.6875 15.0938ZM39.375 34.7812C39.375 35.5064 38.7877 36.0938 38.0625 36.0938C37.3373 36.0938 36.75 35.5064 36.75 34.7812V33.4688C36.75 32.7436 37.3373 32.1562 38.0625 32.1562C38.7877 32.1562 39.375 32.7436 39.375 33.4688V34.7812ZM39.375 28.875C39.375 29.6002 38.7877 30.1875 38.0625 30.1875C37.3373 30.1875 36.75 29.6002 36.75 28.875V27.5625C36.75 26.8373 37.3373 26.25 38.0625 26.25C38.7877 26.25 39.375 26.8373 39.375 27.5625V28.875ZM39.375 22.9688C39.375 23.6939 38.7877 24.2812 38.0625 24.2812C37.3373 24.2812 36.75 23.6939 36.75 22.9688V21.6562C36.75 20.9311 37.3373 20.3438 38.0625 20.3438C38.7877 20.3438 39.375 20.9311 39.375 21.6562V22.9688Z" fill="#6544FB"/>
<path d="M0 16.4062V40.6875C0 41.4124 0.58759 42 1.3125 42H7.46484C7.69133 42 7.875 41.8163 7.875 41.5898V15.5039C7.875 15.2774 7.69133 15.0938 7.46484 15.0938H1.3125C0.58759 15.0938 0 15.6813 0 16.4062ZM2.625 21.6562C2.625 20.9311 3.21234 20.3438 3.9375 20.3438C4.66266 20.3438 5.25 20.9311 5.25 21.6562V22.9688C5.25 23.6939 4.66266 24.2812 3.9375 24.2812C3.21234 24.2812 2.625 23.6939 2.625 22.9688V21.6562ZM2.625 27.5625C2.625 26.8373 3.21234 26.25 3.9375 26.25C4.66266 26.25 5.25 26.8373 5.25 27.5625V28.875C5.25 29.6002 4.66266 30.1875 3.9375 30.1875C3.21234 30.1875 2.625 29.6002 2.625 28.875V27.5625ZM2.625 33.4688C2.625 32.7436 3.21234 32.1562 3.9375 32.1562C4.66266 32.1562 5.25 32.7436 5.25 33.4688V34.7812C5.25 35.5064 4.66266 36.0938 3.9375 36.0938C3.21234 36.0938 2.625 35.5064 2.625 34.7812V33.4688Z" fill="#6544FB"/>
</svg>
