<svg width="42" height="42" viewBox="0 0 42 42" fill="none" xmlns="http://www.w3.org/2000/svg">
<g clip-path="url(#clip0)">
<path d="M22.8025 3.27253L3.57 0.350027C2.6775 0.210027 1.7675 0.455027 1.085 1.03253C0.4025 1.62753 0 2.48503 0 3.37753V40.25C0 41.2125 0.7875 42 1.75 42H7.4375V32.8125C7.4375 31.115 8.8025 29.75 10.5 29.75H14.875C16.5725 29.75 17.9375 31.115 17.9375 32.8125V42H25.375V6.30003C25.375 4.79503 24.29 3.51753 22.8025 3.27253ZM9.625 25.8125H7C6.2755 25.8125 5.6875 25.2245 5.6875 24.5C5.6875 23.7755 6.2755 23.1875 7 23.1875H9.625C10.3495 23.1875 10.9375 23.7755 10.9375 24.5C10.9375 25.2245 10.3495 25.8125 9.625 25.8125ZM9.625 20.5625H7C6.2755 20.5625 5.6875 19.9745 5.6875 19.25C5.6875 18.5255 6.2755 17.9375 7 17.9375H9.625C10.3495 17.9375 10.9375 18.5255 10.9375 19.25C10.9375 19.9745 10.3495 20.5625 9.625 20.5625ZM9.625 15.3125H7C6.2755 15.3125 5.6875 14.7245 5.6875 14C5.6875 13.2755 6.2755 12.6875 7 12.6875H9.625C10.3495 12.6875 10.9375 13.2755 10.9375 14C10.9375 14.7245 10.3495 15.3125 9.625 15.3125ZM9.625 10.0625H7C6.2755 10.0625 5.6875 9.47453 5.6875 8.75003C5.6875 8.02553 6.2755 7.43753 7 7.43753H9.625C10.3495 7.43753 10.9375 8.02553 10.9375 8.75003C10.9375 9.47453 10.3495 10.0625 9.625 10.0625ZM18.375 25.8125H15.75C15.0255 25.8125 14.4375 25.2245 14.4375 24.5C14.4375 23.7755 15.0255 23.1875 15.75 23.1875H18.375C19.0995 23.1875 19.6875 23.7755 19.6875 24.5C19.6875 25.2245 19.0995 25.8125 18.375 25.8125ZM18.375 20.5625H15.75C15.0255 20.5625 14.4375 19.9745 14.4375 19.25C14.4375 18.5255 15.0255 17.9375 15.75 17.9375H18.375C19.0995 17.9375 19.6875 18.5255 19.6875 19.25C19.6875 19.9745 19.0995 20.5625 18.375 20.5625ZM18.375 15.3125H15.75C15.0255 15.3125 14.4375 14.7245 14.4375 14C14.4375 13.2755 15.0255 12.6875 15.75 12.6875H18.375C19.0995 12.6875 19.6875 13.2755 19.6875 14C19.6875 14.7245 19.0995 15.3125 18.375 15.3125ZM18.375 10.0625H15.75C15.0255 10.0625 14.4375 9.47453 14.4375 8.75003C14.4375 8.02553 15.0255 7.43753 15.75 7.43753H18.375C19.0995 7.43753 19.6875 8.02553 19.6875 8.75003C19.6875 9.47453 19.0995 10.0625 18.375 10.0625Z" fill="#6544FB"/>
<path d="M39.5855 18.9735L27.1255 16.3643V42H38.938C40.6267 42 42.0005 40.6263 42.0005 38.9375V21.966C42.0005 20.5205 41.0152 19.2903 39.5855 18.9735ZM35.438 36.75H32.813C32.0885 36.75 31.5005 36.162 31.5005 35.4375C31.5005 34.713 32.0885 34.125 32.813 34.125H35.438C36.1625 34.125 36.7505 34.713 36.7505 35.4375C36.7505 36.162 36.1625 36.75 35.438 36.75ZM35.438 31.5H32.813C32.0885 31.5 31.5005 30.912 31.5005 30.1875C31.5005 29.463 32.0885 28.875 32.813 28.875H35.438C36.1625 28.875 36.7505 29.463 36.7505 30.1875C36.7505 30.912 36.1625 31.5 35.438 31.5ZM35.438 26.25H32.813C32.0885 26.25 31.5005 25.662 31.5005 24.9375C31.5005 24.213 32.0885 23.625 32.813 23.625H35.438C36.1625 23.625 36.7505 24.213 36.7505 24.9375C36.7505 25.662 36.1625 26.25 35.438 26.25Z" fill="#6544FB"/>
</g>
<defs>
<clipPath id="clip0">
<rect width="42" height="42" fill="white"/>
</clipPath>
</defs>
</svg>
