<svg width="12" height="10" viewBox="0 0 12 10" fill="none" xmlns="http://www.w3.org/2000/svg">
<path d="M2.29766 9.29449L1.31264 9.30541C0.895555 9.31004 0.562664 9.02218 0.570205 8.66341L0.678612 1.20647C0.683962 0.845808 1.0255 0.550465 1.44034 0.547781L10.066 0.452095C10.4831 0.447468 10.816 0.735329 10.8084 1.0941L10.7958 1.94589C10.7904 2.31039 10.4377 2.60777 10.0163 2.60478L4.79772 2.55333L11.092 7.99619C11.3833 8.24806 11.3772 8.65861 11.0783 8.91704L10.3593 9.53881C10.0604 9.79723 9.58567 9.8025 9.29439 9.55062L3.00013 4.10777L3.05962 8.62045C3.06528 8.98674 2.72137 9.2917 2.29766 9.29449Z" fill="white"/>
</svg>
