<svg width="12" height="12" viewBox="0 0 12 12" fill="none" xmlns="http://www.w3.org/2000/svg">
<path d="M2.82022 1.94876L3.03012 1.12317C3.119 0.773595 3.47156 0.570046 3.81642 0.669201L10.995 2.68975C11.3422 2.78756 11.551 3.14928 11.4608 3.49648L9.62269 10.726C9.53381 11.0755 9.18126 11.2791 8.8364 11.1799L8.01646 10.9489C7.66559 10.8501 7.45727 10.4785 7.55448 10.1273L8.77213 5.78172L2.10603 9.63039C1.79754 9.8085 1.40235 9.69715 1.21962 9.38065L0.779955 8.61913C0.59722 8.30263 0.69839 7.90471 1.00688 7.7266L7.67298 3.87793L3.30076 2.75965C2.94568 2.66957 2.72808 2.30339 2.82022 1.94876Z" fill="white"/>
</svg>
