<svg width="11" height="10" viewBox="0 0 11 10" fill="none" xmlns="http://www.w3.org/2000/svg">
<path d="M8.52475 0.690865L9.37653 0.679938C9.7372 0.675311 10.0251 0.963173 10.0185 1.32194L9.9248 8.77888C9.92017 9.13954 9.62483 9.43489 9.2661 9.43757L1.80723 9.53326C1.44656 9.53788 1.1587 9.25002 1.16522 8.89125L1.17615 8.03947C1.18082 7.67496 1.48578 7.37758 1.85019 7.38058L6.36286 7.43202L0.92001 1.98917C0.668131 1.73729 0.673398 1.32674 0.931823 1.06832L1.5536 0.446542C1.81202 0.188117 2.22257 0.182851 2.47445 0.43473L7.9173 5.87758L7.86586 1.36491C7.86097 0.998608 8.15835 0.693647 8.52475 0.690865Z" fill="white"/>
</svg>
