<svg width="11" height="10" viewBox="0 0 11 10" fill="none" xmlns="http://www.w3.org/2000/svg">
<path d="M9.79449 8.0394L9.80541 8.89118C9.81004 9.25185 9.52218 9.53971 9.16341 9.53319L1.70647 9.43944C1.34581 9.43482 1.05046 9.13947 1.04778 8.78075L0.952094 1.32188C0.947468 0.961209 1.23533 0.673348 1.5941 0.679868L2.44589 0.690796C2.81039 0.695472 3.10777 1.00043 3.10478 1.36484L3.05333 5.87751L8.49619 0.43466C8.74806 0.182781 9.15861 0.188047 9.41703 0.446472L10.0388 1.06825C10.2972 1.32667 10.3025 1.73722 10.0506 1.9891L4.60777 7.43195L9.12045 7.38051C9.48674 7.37561 9.7917 7.673 9.79449 8.0394Z" fill="white"/>
</svg>
