<svg width="14" height="13" viewBox="0 0 14 13" fill="none" xmlns="http://www.w3.org/2000/svg">
<path d="M13.6715 4.11362H12.0344L11.5794 2.87271C11.1119 1.5969 9.99597 0.772705 8.73624 0.772705H5.26358C4.00412 0.772705 2.88795 1.5969 2.4201 2.87271L1.9651 4.11362H0.328299C0.114744 4.11362 -0.0419354 4.33257 0.0100178 4.55838L0.17408 5.27429C0.210448 5.43358 0.341698 5.54544 0.492362 5.54544H1.04115C0.673925 5.89534 0.437401 6.40393 0.437401 6.97726V8.40908C0.437401 8.88993 0.605839 9.32395 0.874902 9.65983V11.2727C0.874902 11.7998 1.26674 12.2273 1.7499 12.2273H2.6249C3.10807 12.2273 3.49991 11.7998 3.49991 11.2727V10.3182H10.4999V11.2727C10.4999 11.7998 10.8918 12.2273 11.3749 12.2273H12.2499C12.7331 12.2273 13.1249 11.7998 13.1249 11.2727V9.65983C13.394 9.32425 13.5624 8.89023 13.5624 8.40908V6.97726C13.5624 6.40393 13.3259 5.89534 12.9589 5.54544H13.5077C13.6584 5.54544 13.7896 5.43358 13.826 5.27429L13.9901 4.55838C14.0418 4.33257 13.8851 4.11362 13.6715 4.11362ZM4.04487 3.58176C4.2442 3.03826 4.72682 2.6818 5.26358 2.6818H8.73624C9.273 2.6818 9.75562 3.03826 9.95495 3.58176L10.4999 5.06817H3.49991L4.04487 3.58176ZM2.6249 8.40311C2.0999 8.40311 1.7499 8.02249 1.7499 7.45155C1.7499 6.88061 2.0999 6.49999 2.6249 6.49999C3.1499 6.49999 3.93741 7.35639 3.93741 7.92733C3.93741 8.49827 3.1499 8.40311 2.6249 8.40311ZM11.3749 8.40311C10.8499 8.40311 10.0624 8.49827 10.0624 7.92733C10.0624 7.35639 10.8499 6.49999 11.3749 6.49999C11.8999 6.49999 12.2499 6.88061 12.2499 7.45155C12.2499 8.02249 11.8999 8.40311 11.3749 8.40311Z" fill="#0B315E"/>
</svg>
