<svg width="24" height="24" viewBox="0 0 24 24" fill="none" xmlns="http://www.w3.org/2000/svg">
<circle cx="12" cy="12" r="12" fill="white"/>
<path d="M15.7296 9.57572L13.3056 11.9999L15.7296 14.4241C16.0901 14.7847 16.0901 15.369 15.7296 15.7297C15.5494 15.9099 15.3133 16 15.0772 16C14.8407 16 14.6045 15.91 14.4245 15.7297L12 13.3053L9.57571 15.7297C9.39559 15.9098 9.15938 16 8.9231 16C8.68689 16 8.45084 15.91 8.27055 15.7297C7.91 15.3692 7.91 14.7849 8.27055 14.424L10.6944 11.9999L8.27041 9.57572C7.90986 9.21517 7.90986 8.63076 8.27041 8.27021C8.6309 7.90993 9.21496 7.90993 9.57558 8.27021L12 10.6944L14.4242 8.27021C14.7849 7.90993 15.369 7.90993 15.7294 8.27021C16.0901 8.63076 16.0901 9.21517 15.7296 9.57572Z" fill="#4CB0FA"/>
</svg>
