<svg width="45" height="45" viewBox="0 0 45 45" fill="none" xmlns="http://www.w3.org/2000/svg">
<path d="M10.4592 3.30306C9.73106 3.07674 8.95771 3.48359 8.73139 4.21167L4.03294 19.3311C3.92421 19.6808 3.95893 20.0592 4.12935 20.3833C4.29977 20.7073 4.59192 20.9504 4.94155 21.0591L29.3151 28.6331L44.9225 14.0125L10.4592 3.30306Z" fill="#6544FB"/>
<path d="M44.0286 19.2617L43.5244 19.105L34.4375 27.6174L40.8162 29.5996C40.9501 29.6411 41.0882 29.6618 41.2259 29.6618C41.4476 29.6618 41.6684 29.6084 41.8684 29.5032C42.1924 29.3327 42.4354 29.0406 42.5442 28.691L44.9373 20.9896C45.1635 20.2615 44.7567 19.4879 44.0286 19.2617Z" fill="#0B315E"/>
<path d="M15.3609 27.1877L15.0459 28.2016C14.8197 28.9296 15.2265 29.7032 15.9546 29.9294L23.8481 32.3823C23.982 32.4239 24.12 32.4446 24.2578 32.4446C24.4795 32.4446 24.7003 32.3911 24.9002 32.2859C25.2243 32.1155 25.4673 31.8234 25.576 31.4737L25.891 30.4598L15.3609 27.1877Z" fill="#0B315E"/>
<path d="M17.9564 33.4426L17.8584 33.7958H8.01053C7.72884 30.962 5.33136 28.7415 2.42473 28.7415H1.38041C0.618047 28.7414 0 29.3595 0 30.1219V40.3792C0 41.1416 0.618047 41.7596 1.38041 41.7596H2.42473C5.38189 41.7596 7.81058 39.4609 8.02187 36.5567H18.9077C19.5279 36.5567 20.0719 36.1431 20.2379 35.5456L20.5941 34.2624L17.9564 33.4426Z" fill="#6544FB"/>
</svg>
