<svg width="48" height="45" viewBox="0 0 48 45" fill="none" xmlns="http://www.w3.org/2000/svg">
<g clip-path="url(#clip0)">
<path d="M0.676758 29.1161H3.44643V34.4103H6.21611V42.3514H3.44643V44.9985H11.7555V42.3514H8.98578V34.4103H11.7555V29.1161H36.6825V34.4103H39.4522V42.3514H36.6825V44.9985H44.9916V42.3514H42.2219V34.4103H44.9916V29.1161H47.7612V23.822H0.676758V29.1161Z" fill="#6544FB"/>
<path d="M3.44678 10.5867H20.0648V14.5573H3.44678V10.5867Z" fill="#6544FB"/>
<path d="M0.676758 17.2043H17.2948V21.1749H0.676758V17.2043Z" fill="#6544FB"/>
<path d="M43.6064 15.8808V6.02487C43.6064 0.680639 36.8542 -2.01107 32.8834 1.76408L32.3375 2.28308C30.2378 1.09367 27.4489 1.33605 25.6035 3.09987L23.645 4.97161L31.4789 12.4586L33.4374 10.5868C35.2584 8.84637 35.5438 6.18582 34.294 4.15676L34.8367 3.64085C37.0537 1.53246 40.8367 3.03387 40.8367 6.02487V15.8808H38.0671V13.2338H35.2974V16.1085C33.6855 16.6548 32.5277 18.1261 32.5277 19.8514V21.175H47.7609V19.8514C47.7609 17.6621 45.8973 15.8808 43.6064 15.8808Z" fill="#0B315E"/>
</g>
<defs>
<clipPath id="clip0">
<rect width="47.0845" height="45" fill="white" transform="translate(0.676758)"/>
</clipPath>
</defs>
</svg>
