<svg width="20" height="20" viewBox="0 0 20 20" fill="none" xmlns="http://www.w3.org/2000/svg">
<path fill-rule="evenodd" clip-rule="evenodd" d="M4.9359 0.836684L4.90982 0.834956C3.70271 0.778794 1.99928 2.23022 1.36986 3.28001C0.679243 4.22334 0.665965 5.47606 1.26906 6.92508L1.36414 7.14389C2.95331 11.0576 8.91657 17.0134 12.815 18.644C14.3066 19.3418 15.636 19.3545 16.6834 18.6003C17.6043 18.0738 19.1146 16.3221 19.0709 15.078C19.0295 14.5662 18.7915 14.1483 18.4219 13.768L18.3317 13.6783L18.0807 13.4462C17.1715 12.6332 15.5974 11.4757 15.1105 11.3734C14.5389 11.2542 14.1513 11.3609 13.5399 11.698L13.3122 11.8275C12.8774 12.0782 12.7219 12.1211 12.516 12.046C10.3408 11.153 8.80696 9.61147 7.90812 7.40032C7.84969 7.23649 7.87859 7.09341 8.06765 6.74652L8.16726 6.56962C8.57935 5.84989 8.7175 5.44301 8.5877 4.81649L8.56479 4.73529C8.35187 4.11542 7.04693 2.36654 6.32237 1.60516L6.20564 1.48707C5.82803 1.11622 5.4128 0.87774 4.9359 0.836684ZM4.8346 2.17535L4.88431 2.18489C4.9713 2.20945 5.07389 2.26969 5.18941 2.36895L5.27355 2.44589L5.43236 2.61308C6.04842 3.29327 7.24191 4.89733 7.28138 5.08913C7.31869 5.2692 7.27743 5.41968 7.08195 5.77434L6.97967 5.95514C6.54921 6.70891 6.41596 7.19493 6.66333 7.88225C7.70755 10.4525 9.50478 12.2587 12.0363 13.2973C12.6892 13.5361 13.1521 13.4407 13.8078 13.0853L14.0325 12.9584C14.4774 12.7011 14.6403 12.6452 14.8386 12.6866C15.0324 12.7273 16.7664 14.0287 17.402 14.6403L17.4762 14.7141C17.6402 14.8829 17.7298 15.0403 17.7394 15.1571C17.7483 15.43 17.475 15.9428 16.9925 16.5024C16.649 16.9008 16.203 17.3081 16.0096 17.4432L15.9634 17.4731C15.3386 17.919 14.567 17.9382 13.5467 17.5034L13.3525 17.4166C9.82777 15.9417 4.2847 10.4474 2.68377 6.83578L2.58889 6.61256C2.09282 5.51533 2.05167 4.71316 2.40786 4.12952L2.47929 4.02263C2.89212 3.33906 4.13627 2.26238 4.75574 2.1795L4.8346 2.17535ZM12.2199 1.0568L12.3106 1.06075C15.9129 1.46284 18.7576 4.31946 19.1625 7.94068C19.2036 8.30877 18.9402 8.6407 18.5741 8.68207C18.208 8.72345 17.8778 8.4586 17.8367 8.09051C17.5014 5.09208 15.146 2.72683 12.1633 2.39391C11.7972 2.35304 11.5333 2.02147 11.5739 1.65333C11.6078 1.34654 11.8425 1.11117 12.1317 1.06489L12.2199 1.0568ZM12.2746 4.22592L12.3646 4.23732C14.2056 4.59809 15.6442 6.04444 16.003 7.89533C16.0735 8.2589 15.8375 8.61107 15.4759 8.68193C15.1142 8.7528 14.764 8.51552 14.6935 8.15195C14.4386 6.83726 13.417 5.81015 12.1093 5.5539C11.7477 5.48303 11.5117 5.13086 11.5822 4.7673C11.6409 4.46433 11.894 4.24906 12.186 4.22673L12.2746 4.22592Z" fill="white"/>
</svg>
