<svg width="55" height="52" viewBox="0 0 55 52" fill="none" xmlns="http://www.w3.org/2000/svg">
<g clip-path="url(#clip0)">
<path d="M27.8505 15.0385C29.3592 13.6339 29.3874 11.3264 27.9197 9.89007C26.4501 8.44979 24.0412 8.41778 22.5363 9.82233C21.0294 11.2265 20.9958 13.5291 22.4671 14.9672C23.9312 16.4089 26.3456 16.4376 27.8505 15.0385Z" fill="#0B315E"/>
<path d="M23.2922 39.4105C21.7873 40.8116 21.7553 43.1157 23.2231 44.5541C24.6871 45.9957 27.1017 46.0262 28.61 44.625C30.1151 43.2206 30.1452 40.9131 28.6757 39.4765C27.2062 38.0349 24.7991 38.0062 23.2922 39.4105Z" fill="#0B315E"/>
<path d="M29.5676 26.186L24.06 24.6781L23.2286 22.1029C24.3348 20.8848 24.3153 19.0466 23.1151 17.8692L22.1382 16.9121C21.7004 16.4803 20.9525 16.1176 20.5945 16.0311L12.5237 14.0524C11.788 13.8694 11.0046 14.0931 10.4904 14.6299L5.63346 19.6889C4.86404 20.4919 4.91895 21.7405 5.75746 22.4757C6.15276 22.8229 6.65265 22.9957 7.15243 22.9957C7.71077 22.9957 8.26568 22.7789 8.67351 22.357L12.6937 18.1657L15.3845 18.825L9.6378 24.1767C8.75525 24.8985 7.95756 26.0435 8.46432 27.1957L10.7352 32.3596L1.33863 37.0166C0.124227 37.618 -0.350708 39.0478 0.278509 40.2068C0.905952 41.3588 2.39309 41.8196 3.61626 41.2181L15.0428 35.5562C15.3705 35.3937 15.6261 35.1614 15.8404 34.8989L17.0884 36.2188L15.2625 42.6735C14.9062 43.9324 15.6877 45.2334 17.0068 45.5738C18.34 45.9144 19.6887 45.157 20.0416 43.9067L22.22 36.2067C22.4382 35.4309 22.2326 34.6023 21.667 34.006L16.4343 28.4661L19.9175 25.2218L20.4475 26.8598C20.6532 27.4971 21.1796 27.9918 21.8497 28.1746L28.4314 29.9754C29.5304 30.2771 30.6702 29.6655 30.9823 28.6237C31.2959 27.5767 30.6631 26.4858 29.5676 26.186Z" fill="#0B315E"/>
<path d="M54.2891 24.2221L51.8766 17.754C51.6211 17.0695 50.992 16.5747 50.2403 16.4663L41.9993 15.2822C41.6234 15.2296 40.7974 15.2874 40.2196 15.5194L38.9275 16.0379C37.3445 16.6763 36.5717 18.3622 37.0983 19.8971L35.2846 21.9572L29.5962 21.2982C28.4387 21.1678 27.4354 21.937 27.299 23.0177C27.1626 24.1002 27.9673 25.0814 29.0983 25.2118L35.8962 25.9996C36.5733 26.0808 37.2649 25.83 37.7256 25.3116L38.8759 24.002L40.9482 28.7066L37.5272 31.043C37.1972 31.27 36.9297 31.5698 36.7489 31.9156L31.3849 42.2379C30.7768 43.4069 31.2766 44.8284 32.5016 45.4094C33.7212 45.9855 35.2084 45.5195 35.8219 44.3422L39.998 36.3015L47.3758 44.8011C48.2445 45.7991 49.8027 45.9465 50.8625 45.1115C51.9155 44.2761 52.0609 42.7851 51.1871 41.779L44.428 33.9925L48.624 30.0792C49.5385 29.2269 49.3046 27.9918 48.8081 26.9396L45.6618 19.7974L48.4058 20.1903L50.4036 25.5455C50.7882 26.579 51.9776 27.1075 53.0396 26.7399C54.1118 26.3756 54.6719 25.2473 54.2891 24.2221Z" fill="#6544FB"/>
<path d="M40.708 13.3374C42.6474 12.5599 43.5549 10.4269 42.7395 8.57196C41.9241 6.72187 39.6921 5.84914 37.755 6.63039C35.8157 7.40952 34.9027 9.54423 35.7182 11.3993C36.5372 13.2492 38.7704 14.1218 40.708 13.3374Z" fill="#6544FB"/>
</g>
<defs>
<clipPath id="clip0">
<rect width="54.4087" height="52" fill="white"/>
</clipPath>
</defs>
</svg>
