<svg width="20" height="20" viewBox="0 0 20 20" fill="none" xmlns="http://www.w3.org/2000/svg">
<path fill-rule="evenodd" clip-rule="evenodd" d="M18.3395 5.65948C19.0095 6.17848 19.4205 6.94948 19.4905 7.78848L19.5005 7.98948V16.0985C19.5005 18.1885 17.8495 19.8885 15.7805 19.9985H13.7905C12.8395 19.9795 12.0705 19.2395 12.0005 18.3095L11.9905 18.1685V15.3095C11.9905 14.9985 11.7595 14.7395 11.4505 14.6885L11.3605 14.6785H8.68949C8.37049 14.6885 8.11049 14.9185 8.07049 15.2185L8.06049 15.3095V18.1595C8.06049 18.2185 8.04949 18.2885 8.04049 18.3385L8.03049 18.3595L8.01949 18.4285C7.90049 19.2795 7.20049 19.9285 6.33049 19.9895L6.20049 19.9985H4.41049C2.32049 19.9985 0.610488 18.3595 0.500488 16.2985V7.98948C0.509488 7.13848 0.880488 6.34848 1.50049 5.79848L7.73049 0.788477C9.00049 -0.220523 10.7805 -0.260523 12.0895 0.668477L12.2505 0.788477L18.3395 5.65948ZM18.0995 16.2585L18.1105 16.0985V7.99848C18.0995 7.56948 17.9205 7.16848 17.6105 6.86948L17.4805 6.75848L11.3805 1.87848C10.6205 1.26848 9.54049 1.23948 8.74049 1.76848L8.58949 1.87848L2.50949 6.77948C2.16049 7.03848 1.95049 7.42848 1.90049 7.83848L1.88949 7.99848V16.0985C1.88949 17.4285 2.92949 18.5185 4.25049 18.5985H6.20049C6.42049 18.5985 6.61049 18.4495 6.63949 18.2395L6.66049 18.0595L6.67049 18.0085V15.3095C6.67049 14.2395 7.49049 13.3695 8.54049 13.2885H11.3605C12.4295 13.2885 13.2995 14.1095 13.3805 15.1595V18.1685C13.3805 18.3785 13.5305 18.5595 13.7305 18.5985H15.5895C16.9295 18.5985 18.0195 17.5695 18.0995 16.2585Z" fill="white"/>
</svg>
