<svg width="16" height="16" viewBox="0 0 16 16" fill="none" xmlns="http://www.w3.org/2000/svg">
<path fill-rule="evenodd" clip-rule="evenodd" d="M11.2335 0H4.76649C2.13823 0 0 2.13823 0 4.76649V11.2335C0 13.8618 2.13823 16 4.76649 16H11.2335C13.8618 16 16 13.8618 16 11.2335V4.76649C16 2.13823 13.8617 0 11.2335 0ZM14.3905 11.2335C14.3905 12.977 12.9771 14.3904 11.2336 14.3904H4.76655C3.02306 14.3904 1.60966 12.977 1.60966 11.2335V4.76644C1.60966 3.02292 3.02306 1.60955 4.76655 1.60955H11.2336C12.9771 1.60955 14.3905 3.02292 14.3905 4.76644V11.2335ZM3.86188 7.99982C3.86188 5.71806 5.71826 3.86168 8.00005 3.86168C10.2818 3.86168 12.1382 5.71803 12.1382 7.99982C12.1382 10.2816 10.2818 12.138 8.00005 12.138C5.71826 12.138 3.86188 10.2816 3.86188 7.99982ZM8.00006 10.5286C6.60353 10.5286 5.47144 9.39649 5.47144 7.99999C5.47144 6.60348 6.60356 5.47141 8.00006 5.47141C9.39659 5.47141 10.5287 6.60348 10.5287 7.99999C10.5287 9.39646 9.39656 10.5286 8.00006 10.5286ZM13.1378 3.89269C13.1378 4.44033 12.6938 4.88428 12.1462 4.88428C11.5985 4.88428 11.1546 4.44033 11.1546 3.89269C11.1546 3.34505 11.5985 2.9011 12.1462 2.9011C12.6938 2.9011 13.1378 3.34505 13.1378 3.89269Z" fill="white"/>
</svg>
