<svg width="38" height="38" viewBox="0 0 38 38" fill="none" xmlns="http://www.w3.org/2000/svg">
<rect width="38" height="38" rx="19" fill="url(#paint0_linear)"/>
<path fill-rule="evenodd" clip-rule="evenodd" d="M22.2335 11H15.7665C13.1382 11 11 13.1382 11 15.7665V22.2335C11 24.8618 13.1382 27 15.7665 27H22.2335C24.8618 27 27 24.8618 27 22.2335V15.7665C27 13.1382 24.8617 11 22.2335 11ZM25.3905 22.2335C25.3905 23.977 23.9771 25.3904 22.2336 25.3904H15.7666C14.0231 25.3904 12.6097 23.977 12.6097 22.2335V15.7664C12.6097 14.0229 14.0231 12.6096 15.7666 12.6096H22.2336C23.9771 12.6096 25.3905 14.0229 25.3905 15.7664V22.2335ZM14.8619 18.9998C14.8619 16.7181 16.7183 14.8617 19.0001 14.8617C21.2818 14.8617 23.1382 16.718 23.1382 18.9998C23.1382 21.2816 21.2818 23.138 19.0001 23.138C16.7183 23.138 14.8619 21.2816 14.8619 18.9998ZM19.0001 21.5286C17.6035 21.5286 16.4714 20.3965 16.4714 19C16.4714 17.6035 17.6036 16.4714 19.0001 16.4714C20.3966 16.4714 21.5287 17.6035 21.5287 19C21.5287 20.3965 20.3966 21.5286 19.0001 21.5286ZM24.1378 14.8927C24.1378 15.4403 23.6938 15.8843 23.1462 15.8843C22.5985 15.8843 22.1546 15.4403 22.1546 14.8927C22.1546 14.3451 22.5985 13.9011 23.1462 13.9011C23.6938 13.9011 24.1378 14.3451 24.1378 14.8927Z" fill="white"/>
<defs>
<linearGradient id="paint0_linear" x1="0.126959" y1="-0.0634794" x2="5.93279e-07" y2="37.9365" gradientUnits="userSpaceOnUse">
<stop stop-color="#7024C4"/>
<stop offset="0.415461" stop-color="#C21975"/>
<stop offset="0.702206" stop-color="#C74C4D"/>
<stop offset="1" stop-color="#E09B3D"/>
</linearGradient>
</defs>
</svg>
