<svg width="45" height="45" viewBox="0 0 45 45" fill="none" xmlns="http://www.w3.org/2000/svg">
<path d="M8.65986 34.3011L6.96709 35.1475L1.90811 32.618C1.49941 32.4133 1.01426 32.4352 0.624902 32.6752C0.236426 32.916 0 33.3396 0 33.7967V43.6817C0 44.4094 0.590625 45.0001 1.31836 45.0001H8.88662C8.73984 44.5879 8.65986 44.144 8.65986 43.6817V34.3011Z" fill="#0B315E"/>
<path d="M44.375 32.6752C43.9856 32.4352 43.5005 32.4133 43.0918 32.618L38.0328 35.1475L36.34 34.3011V43.6817C36.34 44.144 36.2601 44.5879 36.1133 45.0001H43.6815C44.4093 45.0001 44.9999 44.4094 44.9999 43.6817V33.7967C44.9999 33.3396 44.7635 32.916 44.375 32.6752Z" fill="#0B315E"/>
<path d="M17.558 19.0248L19.7034 16.8794C20.4505 16.1323 21.4437 15.721 22.5001 15.721C23.5565 15.721 24.5497 16.1323 25.2968 16.8794L27.4422 19.0248L29.5885 16.8794C29.7537 16.7142 29.9313 16.5647 30.1193 16.4338L23.8185 3.83115V1.31836C23.8185 0.590273 23.2282 0 22.5001 0C21.772 0 21.1817 0.590273 21.1817 1.31836V3.83115L14.8809 16.4329C15.0689 16.5647 15.2465 16.7133 15.4126 16.8794L17.558 19.0248Z" fill="#6544FB"/>
<path d="M32.8893 18.4579C32.3969 18.254 31.8296 18.3666 31.4526 18.7437L27.4424 22.7538L23.4322 18.7437C22.9174 18.2288 22.0826 18.2288 21.5678 18.7437L17.5576 22.7538L13.5475 18.7437C13.1705 18.3666 12.6034 18.2537 12.1107 18.4579C11.6181 18.662 11.2969 19.1427 11.2969 19.6759V43.6818C11.2969 44.4099 11.8871 45.0001 12.6152 45.0001H32.3848C33.1129 45.0001 33.7032 44.4099 33.7032 43.6818V19.676C33.7032 19.1427 33.382 18.662 32.8893 18.4579ZM22.5 39.3517C19.4371 39.3517 16.9453 36.8598 16.9453 33.797C16.9453 30.7342 19.4372 28.2423 22.5 28.2423C25.5628 28.2423 28.0547 30.7341 28.0547 33.797C28.0547 36.8599 25.5629 39.3517 22.5 39.3517Z" fill="#6544FB"/>
<path d="M22.5 30.8789C20.891 30.8789 19.582 32.1879 19.582 33.7969C19.582 35.4059 20.8911 36.7148 22.5 36.7148C24.1089 36.7148 25.418 35.4058 25.418 33.7969C25.418 32.1879 24.109 30.8789 22.5 30.8789Z" fill="#6544FB"/>
</svg>
