<svg width="55" height="52" viewBox="0 0 55 52" fill="none" xmlns="http://www.w3.org/2000/svg">
<g clip-path="url(#clip0)">
<path d="M27.851 15.0385C29.3597 13.6339 29.3878 11.3264 27.9202 9.89007C26.4506 8.44979 24.0416 8.41778 22.5368 9.82233C21.0299 11.2265 20.9963 13.5291 22.4676 14.9672C23.9317 16.4089 26.3461 16.4376 27.851 15.0385Z" fill="#0B315E"/>
<path d="M23.2927 39.4105C21.7878 40.8116 21.7558 43.1157 23.2236 44.5541C24.6876 45.9957 27.1022 46.0262 28.6105 44.625C30.1156 43.2206 30.1457 40.9131 28.6762 39.4765C27.2067 38.0349 24.7996 38.0062 23.2927 39.4105Z" fill="#0B315E"/>
<path d="M29.568 26.186L24.0605 24.6781L23.2291 22.1029C24.3353 20.8848 24.3158 19.0466 23.1156 17.8692L22.1387 16.9121C21.7009 16.4803 20.953 16.1176 20.595 16.0311L12.5242 14.0524C11.7885 13.8694 11.0051 14.0931 10.4909 14.6299L5.63394 19.6889C4.86453 20.4919 4.91943 21.7405 5.75795 22.4757C6.15324 22.8229 6.65314 22.9957 7.15292 22.9957C7.71126 22.9957 8.26616 22.7789 8.674 22.357L12.6942 18.1657L15.385 18.825L9.63829 24.1767C8.75574 24.8985 7.95804 26.0435 8.46481 27.1957L10.7357 32.3596L1.33912 37.0166C0.124716 37.618 -0.35022 39.0478 0.278998 40.2068C0.90644 41.3588 2.39358 41.8196 3.61674 41.2181L15.0433 35.5562C15.371 35.3937 15.6266 35.1614 15.8408 34.8989L17.0889 36.2188L15.263 42.6735C14.9067 43.9324 15.6882 45.2334 17.0073 45.5738C18.3405 45.9144 19.6892 45.157 20.0421 43.9067L22.2205 36.2067C22.4387 35.4309 22.2331 34.6023 21.6675 34.006L16.4348 28.4661L19.9179 25.2218L20.448 26.8598C20.6536 27.4971 21.18 27.9918 21.8502 28.1746L28.4318 29.9754C29.5309 30.2771 30.6706 29.6655 30.9828 28.6237C31.2964 27.5767 30.6635 26.4858 29.568 26.186Z" fill="#0B315E"/>
<path d="M54.2896 24.2221L51.8771 17.754C51.6216 17.0695 50.9925 16.5747 50.2408 16.4663L41.9998 15.2822C41.6239 15.2296 40.7979 15.2874 40.2201 15.5194L38.928 16.0379C37.345 16.6763 36.5722 18.3622 37.0988 19.8971L35.2851 21.9572L29.5966 21.2982C28.4391 21.1678 27.4359 21.937 27.2995 23.0177C27.1631 24.1002 27.9678 25.0814 29.0988 25.2118L35.8967 25.9996C36.5738 26.0808 37.2654 25.83 37.7261 25.3116L38.8764 24.002L40.9487 28.7066L37.5277 31.043C37.1977 31.27 36.9302 31.5698 36.7494 31.9156L31.3854 42.2379C30.7773 43.4069 31.2771 44.8284 32.502 45.4094C33.7217 45.9855 35.2089 45.5195 35.8224 44.3422L39.9985 36.3015L47.3763 44.8011C48.245 45.7991 49.8031 45.9465 50.863 45.1115C51.9159 44.2761 52.0614 42.7851 51.1876 41.779L44.4285 33.9925L48.6245 30.0792C49.5389 29.2269 49.3051 27.9918 48.8086 26.9396L45.6623 19.7974L48.4063 20.1903L50.4041 25.5455C50.7887 26.579 51.9781 27.1075 53.0401 26.7399C54.1123 26.3756 54.6724 25.2473 54.2896 24.2221Z" fill="#6544FB"/>
<path d="M40.7085 13.3374C42.6479 12.5599 43.5554 10.4269 42.74 8.57196C41.9245 6.72187 39.6926 5.84914 37.7555 6.63039C35.8162 7.40952 34.9032 9.54423 35.7187 11.3993C36.5376 13.2492 38.7709 14.1218 40.7085 13.3374Z" fill="#6544FB"/>
</g>
<defs>
<clipPath id="clip0">
<rect width="54.4087" height="52" fill="white" transform="translate(0.000488281)"/>
</clipPath>
</defs>
</svg>
