<svg width="48" height="46" viewBox="0 0 48 46" fill="none" xmlns="http://www.w3.org/2000/svg">
<g clip-path="url(#clip0)">
<path d="M34.918 8.932C37.4987 8.932 39.5909 6.9325 39.5909 4.466C39.5909 1.9995 37.4987 0 34.918 0C32.3372 0 30.2451 1.9995 30.2451 4.466C30.2451 6.9325 32.3372 8.932 34.918 8.932Z" fill="#6544FB"/>
<path d="M44.1163 37.5141C43.0051 37.2021 41.8447 37.8111 41.5214 38.8701C41.0181 40.5141 39.209 41.4561 37.4889 40.9781L30.7275 39.0881L34.94 31.6581C36.3473 29.1771 35.3826 26.0741 32.7846 24.7271L29.5986 23.0781C29.3454 22.9471 29.2501 22.6431 29.3893 22.4011L31.1524 19.2921L32.1338 20.7521C32.9133 21.9111 34.2338 22.5521 35.5867 22.5521C36.2699 22.5521 36.9626 22.3881 37.5987 22.0441L43.0417 19.1041C44.0472 18.5601 44.4019 17.3401 43.8338 16.3781C43.2646 15.4171 41.986 15.0771 40.9805 15.6211L35.6097 18.5231L33.2617 15.0331C33.3475 14.4701 33.3193 13.8911 33.1466 13.3351C32.8317 12.3261 32.1129 11.4771 31.1429 10.9751C29.1246 9.93108 26.605 10.6461 25.5116 12.5741L24.9738 13.5231L9.65463 6.46808L10.3358 5.11708C10.7125 4.37108 10.3839 3.47408 9.60336 3.11508C8.82281 2.75308 7.88426 3.06808 7.50967 3.81508L6.82852 5.16608L4.942 4.29708C4.1604 3.93608 3.22289 4.25108 2.84726 4.99708C2.47059 5.74408 2.79913 6.64008 3.57969 6.99908L5.46516 7.86808L4.78505 9.21908C4.40837 9.96508 4.73692 10.8621 5.51748 11.2211C5.7372 11.3231 5.96949 11.3701 6.19758 11.3701C6.78143 11.3701 7.34226 11.0571 7.61221 10.5211L8.29337 9.17008L23.4765 16.1641L20.686 21.0861C19.9421 22.3981 19.7726 23.9411 20.2183 25.3741C20.663 26.8071 21.6852 28.0101 23.0601 28.7231L25.3944 29.9321C25.8538 30.1691 26.0243 30.7171 25.7764 31.1571L22.5725 36.8071L9.01219 33.0181C7.90309 32.7061 6.74063 33.3171 6.41627 34.3761C6.09191 35.4351 6.72807 36.5471 7.83717 36.8571L36.3149 44.8181C37.0097 45.0111 37.7097 45.1051 38.3992 45.1051C41.6166 45.1051 44.5903 43.0911 45.5382 39.9951C45.8615 38.9341 45.2264 37.8231 44.1163 37.5141Z" fill="#6544FB"/>
</g>
<defs>
<clipPath id="clip0">
<rect width="47.1943" height="45.105" fill="white" transform="translate(0.560059)"/>
</clipPath>
</defs>
</svg>
