<svg width="48" height="45" viewBox="0 0 48 45" fill="none" xmlns="http://www.w3.org/2000/svg">
<g clip-path="url(#clip0)">
<path d="M0.677246 29.1161H3.44692V34.4103H6.2166V42.3514H3.44692V44.9985H11.7559V42.3514H8.98627V34.4103H11.7559V29.1161H36.683V34.4103H39.4527V42.3514H36.683V44.9985H44.992V42.3514H42.2224V34.4103H44.992V29.1161H47.7617V23.822H0.677246V29.1161Z" fill="#6544FB"/>
<path d="M3.44727 10.5867H20.0653V14.5573H3.44727V10.5867Z" fill="#6544FB"/>
<path d="M0.677246 17.2043H17.2953V21.1749H0.677246V17.2043Z" fill="#6544FB"/>
<path d="M43.6071 15.8808V6.02487C43.6071 0.680639 36.855 -2.01107 32.8841 1.76408L32.3383 2.28308C30.2385 1.09367 27.4496 1.33605 25.6043 3.09987L23.6458 4.97161L31.4797 12.4586L33.4381 10.5868C35.2592 8.84637 35.5445 6.18582 34.2948 4.15676L34.8374 3.64085C37.0545 1.53246 40.8375 3.03387 40.8375 6.02487V15.8808H38.0678V13.2338H35.2981V16.1085C33.6863 16.6548 32.5285 18.1261 32.5285 19.8514V21.175H47.7617V19.8514C47.7617 17.6621 45.898 15.8808 43.6071 15.8808Z" fill="#0B315E"/>
</g>
<defs>
<clipPath id="clip0">
<rect width="47.0845" height="45" fill="white" transform="translate(0.677246)"/>
</clipPath>
</defs>
</svg>
