<svg width="240" height="240" viewBox="0 0 240 240" fill="none" xmlns="http://www.w3.org/2000/svg">
<path d="M119.77 0C53.62 0 0 53.62 0 119.77C0 183.95 50.48 236.33 113.91 239.39V191.89H59.27C57.15 191.89 55.18 190.83 54 189.07C52.83 187.31 52.61 185.08 53.43 183.12L116.63 31.76C117.63 29.37 119.86 27.74 122.58 27.87C125.17 27.91 127.48 29.53 128.39 31.95L185.76 183.31C186.5 185.25 186.23 187.44 185.05 189.15C183.87 190.86 181.92 191.88 179.84 191.88H126.56V239.33C189.54 235.8 239.53 183.63 239.53 119.76C239.54 53.62 185.92 0 119.77 0Z" fill="#3DAA35"/>
</svg>
