<svg width="29" height="29" viewBox="0 0 29 29" fill="none" xmlns="http://www.w3.org/2000/svg">
<mask id="path-1-outside-1" maskUnits="userSpaceOnUse" x="0" y="0" width="29" height="29" fill="black">
<rect fill="white" width="29" height="29"/>
<path d="M28 14.5C28 21.9558 21.9558 28 14.5 28C7.04416 28 1 21.9558 1 14.5C1 7.04416 7.04416 1 14.5 1C21.9558 1 28 7.04416 28 14.5ZM4.36432 14.5C4.36432 20.0978 8.90222 24.6357 14.5 24.6357C20.0978 24.6357 24.6357 20.0978 24.6357 14.5C24.6357 8.90222 20.0978 4.36432 14.5 4.36432C8.90222 4.36432 4.36432 8.90222 4.36432 14.5Z"/>
</mask>
<path d="M28 14.5C28 21.9558 21.9558 28 14.5 28C7.04416 28 1 21.9558 1 14.5C1 7.04416 7.04416 1 14.5 1C21.9558 1 28 7.04416 28 14.5ZM4.36432 14.5C4.36432 20.0978 8.90222 24.6357 14.5 24.6357C20.0978 24.6357 24.6357 20.0978 24.6357 14.5C24.6357 8.90222 20.0978 4.36432 14.5 4.36432C8.90222 4.36432 4.36432 8.90222 4.36432 14.5Z" fill="#6544FB"/>
<path d="M28 14.5C28 21.9558 21.9558 28 14.5 28C7.04416 28 1 21.9558 1 14.5C1 7.04416 7.04416 1 14.5 1C21.9558 1 28 7.04416 28 14.5ZM4.36432 14.5C4.36432 20.0978 8.90222 24.6357 14.5 24.6357C20.0978 24.6357 24.6357 20.0978 24.6357 14.5C24.6357 8.90222 20.0978 4.36432 14.5 4.36432C8.90222 4.36432 4.36432 8.90222 4.36432 14.5Z" stroke="#6544FB" stroke-width="2" mask="url(#path-1-outside-1)"/>
</svg>
