<svg width="241" height="240" viewBox="0 0 241 240" fill="none" xmlns="http://www.w3.org/2000/svg">
<path d="M74.6498 110.16C87.6498 75.97 123.82 37.67 125.36 36.06C127.16 34.17 129.92 33.58 132.33 34.55C134.74 35.53 136.31 37.88 136.28 40.48L135.22 147.91C135.19 151.37 132.39 154.16 128.93 154.18L70.0298 154.54H69.9898C68.1698 154.54 66.4398 153.76 65.2398 152.39C62.9598 149.8 60.5998 147.12 74.6498 110.16ZM53.2599 197.85C54.8899 196.25 56.7599 194.93 58.7599 193.82C49.2099 183.76 44.3299 172.41 44.0699 171.8L40.3698 163.03L150.76 162.83V74.27C150.76 70.77 153.6 67.94 157.09 67.94C160.59 67.94 163.42 70.77 163.42 74.27V162.81L232.42 162.69C237.54 149.36 240.37 134.9 240.37 119.77C240.38 53.62 186.76 0 120.61 0C54.4598 0 0.839844 53.62 0.839844 119.77C0.839844 149.76 11.8798 177.14 30.0898 198.15C35.8598 203.33 47.7599 203.25 53.2599 197.85Z" fill="#3C73B9"/>
<path d="M73.4806 190.03C81.3006 189.93 89.1705 192.52 94.5805 197.84C100.201 203.37 112.531 203.37 118.151 197.84C128.771 187.4 148.851 187.4 159.471 197.84C165.091 203.37 177.431 203.36 183.041 197.84C191.241 189.78 205.031 188.02 215.801 192.4C219.891 187.05 223.531 181.35 226.681 175.35L60.5605 175.64C63.5505 180.27 67.9206 185.77 73.4806 190.03Z" fill="#3C73B9"/>
<path d="M191.929 206.87C181.309 217.31 161.229 217.31 150.599 206.87C144.989 201.36 132.639 201.35 127.029 206.87C116.399 217.31 96.3193 217.31 85.6993 206.87C80.0793 201.36 67.7393 201.35 62.1293 206.87C58.1093 210.82 52.7293 213.28 47.0293 214.23C67.3393 230.07 92.8593 239.53 120.599 239.53C154.419 239.53 184.939 225.49 206.709 202.96C201.329 202.2 195.369 203.49 191.929 206.87Z" fill="#3C73B9"/>
<path d="M123.45 57.3799C111.85 71.2099 94.2795 94.1699 86.4895 114.66C81.0495 128.98 78.4795 137.21 77.2695 141.84L122.62 141.56L123.45 57.3799Z" fill="#3C73B9"/>
</svg>
