<svg width="240" height="240" viewBox="0 0 240 240" fill="none" xmlns="http://www.w3.org/2000/svg">
<path d="M183.771 83.06H156.021V46.8H183.771V83.06ZM183.771 146.01H156.021V109.75H183.771V146.01ZM183.771 208.96H156.021V172.7H183.771V208.96ZM132.581 83.06H104.831V46.8H132.581V83.06ZM132.581 146.01H104.831V109.75H132.581V146.01ZM81.6105 83.06H53.8505V46.8H81.6105V83.06ZM81.6105 146.01H53.8505V109.75H81.6105V146.01ZM119.831 0C53.6806 0 0.0605469 53.62 0.0605469 119.77C0.0605469 168.86 29.6106 211.03 71.8806 229.52V172.13H116.141V239.44C117.371 239.48 118.601 239.53 119.831 239.53C185.981 239.53 239.591 185.91 239.591 119.76C239.591 53.62 185.971 0 119.831 0Z" fill="#F7A418"/>
</svg>
