<svg width="58" height="58" viewBox="0 0 58 58" fill="none" xmlns="http://www.w3.org/2000/svg">
<g clip-path="url(#clip0)">
<path d="M41.1308 25.1261C40.9441 25.1261 40.7526 25.1529 40.561 25.2054L38.3962 25.8018L36.1485 20.3258C35.5115 18.7745 33.6291 17.5122 31.9522 17.5122H10.9144C9.23729 17.5122 7.35506 18.7745 6.71828 20.3258L4.47339 25.7941L2.33534 25.2052C2.14401 25.1527 1.95247 25.1258 1.76582 25.1258C0.74255 25.1258 0 25.9076 0 26.9842V28.2604C0 29.5173 1.02284 30.5401 2.27979 30.5401H2.52476L2.16189 31.424C1.57023 32.8648 1.08861 35.3051 1.08861 36.8634V47.742C1.08861 48.999 2.11145 50.0218 3.3684 50.0218H6.34583C7.60279 50.0218 8.62563 48.999 8.62563 47.742V45.0255H34.2407V47.742C34.2407 48.999 35.2636 50.0218 36.5205 50.0218H39.4975C40.7545 50.0218 41.7773 48.999 41.7773 47.742V36.8636C41.7773 35.3055 41.2957 32.8653 40.704 31.4242L40.3412 30.5404H40.6166C41.8735 30.5404 42.8964 29.5175 42.8964 28.2606V26.9845C42.8966 25.9078 42.1538 25.1261 41.1308 25.1261ZM6.10768 29.3021L9.50822 21.0194C9.88918 20.0914 11.0214 19.3321 12.0245 19.3321H30.8421C31.8452 19.3321 32.9774 20.0912 33.3584 21.0194L36.7589 29.3021C37.1396 30.2301 36.6308 30.9894 35.6277 30.9894H7.23907C6.2358 30.9892 5.72694 30.2301 6.10768 29.3021ZM13.6985 39.7789C13.6985 40.2806 13.288 40.6907 12.7868 40.6907H6.32711C5.82547 40.6907 5.41515 40.2803 5.41515 39.7789V36.6789C5.41515 36.1775 5.82547 35.7672 6.32711 35.7672H12.7868C13.288 35.7672 13.6985 36.1775 13.6985 36.6789V39.7789ZM37.3901 39.7789C37.3901 40.2806 36.9796 40.6907 36.4784 40.6907H30.0187C29.5175 40.6907 29.1069 40.2803 29.1069 39.7789V36.6789C29.1069 36.1775 29.5175 35.7672 30.0187 35.7672H36.4784C36.9796 35.7672 37.3901 36.1775 37.3901 36.6789V39.7789Z" fill="#6544FB"/>
<path d="M55.1482 7.97803H44.3505C42.7781 7.97803 41.499 9.25732 41.499 10.8295V21.6274C41.499 23.1998 42.7783 24.4791 44.3505 24.4791H48.6851V48.714C48.6851 49.3018 49.1614 49.7781 49.7492 49.7781C50.337 49.7781 50.8134 49.3018 50.8134 48.714V24.4793H55.1482C56.7206 24.4793 57.9996 23.2 57.9996 21.6276V10.8297C57.9996 9.25732 56.7206 7.97803 55.1482 7.97803ZM52.7026 16.931C52.0816 17.4901 51.1669 17.7736 49.984 17.7736H48.4203C48.2326 17.7736 48.0798 17.9266 48.0798 18.1143V20.751C48.0798 21.0375 47.8468 21.2703 47.5603 21.2703H46.3761C46.0895 21.2703 45.8566 21.0373 45.8566 20.751V11.707C45.8566 11.4203 46.0897 11.1872 46.3761 11.1872H49.3591C51.3352 11.1872 52.0729 11.485 52.679 11.9994C53.3183 12.5419 53.6422 13.3727 53.6422 14.4694C53.642 15.541 53.3262 16.3689 52.7026 16.931Z" fill="#6544FB"/>
<path d="M51.01 13.3706C50.7214 13.1527 50.2109 13.042 49.4928 13.042H48.4204C48.2326 13.042 48.0798 13.1948 48.0798 13.3823V15.5493C48.0798 15.7368 48.2326 15.8896 48.4204 15.8896H49.0629C49.2989 15.8896 49.6803 15.8722 49.9129 15.8507C50.1387 15.83 50.7761 15.7376 51.01 15.561C51.2907 15.3486 51.4331 14.9813 51.4331 14.4694C51.4331 13.9527 51.2907 13.583 51.01 13.3706Z" fill="#6544FB"/>
</g>
<defs>
<clipPath id="clip0">
<rect width="58" height="58" fill="white"/>
</clipPath>
</defs>
</svg>
