<svg width="42" height="42" viewBox="0 0 42 42" fill="none" xmlns="http://www.w3.org/2000/svg">
<path d="M41.5209 38.4402V35.7181C41.5209 33.8679 40.4395 32.7866 38.5894 32.7866H20.1628C17.6761 32.7866 16.3938 33.9643 16.3938 35.7181V39.2518C16.3938 41.0837 17.6242 41.9999 20.1628 41.9999H38.5894C40.4395 41.9999 41.5209 40.7696 41.5209 38.4402ZM38.1706 38.6497H19.7441V36.1369H38.1706V38.6497Z" fill="#6544FB"/>
<path d="M29.282 13.5226C28.1775 13.5226 27.282 14.418 27.282 15.5226V17.878V21.5389L28.3491 24.411H26.5534L9.57137 0.750054C9.26736 0.326478 8.68893 0.207557 8.24247 0.476845L6.00835 1.82439C5.54355 2.10475 5.38727 2.70471 5.65623 3.17619L6.34274 4.37963V15.1977H5.10651L5.93738 21.0607H6.30088H6.34274V22.8322C5.58895 23.1747 4.75134 23.9101 4.75134 25.231C4.75134 26.118 5.09731 26.7655 5.60314 27.1976L1.06104 31.1116H2.34421L6.36709 27.6449C6.73146 27.7874 7.12088 27.866 7.50619 27.866C7.89316 27.866 8.27759 27.763 8.62435 27.5762L12.9856 31.1115H14.293L14.3022 31.0998L9.28521 27.0334C9.62523 26.6237 9.8506 26.0744 9.8506 25.3716C9.8506 24.9084 9.47537 24.534 9.01307 24.534C8.55069 24.534 8.17554 24.9084 8.17554 25.3716C8.17554 25.6723 8.09426 25.8608 7.98793 25.9822L7.75844 25.7963C7.60184 25.6698 7.3748 25.6715 7.22161 25.8047L6.90752 26.0753C6.63608 25.9496 6.42674 25.7034 6.42674 25.2318C6.42674 24.4746 7.17808 24.2912 7.31962 24.2644C7.72332 24.1949 8.01815 23.8465 8.01815 23.4377V21.0606H8.60447H8.94782L10.1196 15.1976H9.27452H8.8555V9.11846L18.9063 28.4621V28.5954V28.8475V29.4363H22.2566V31.1115H33.9826H34.8201V29.4363H39.0079H39.8455V15.5226C39.8455 14.418 38.95 13.5226 37.8455 13.5226H29.282ZM20.037 17.878L20.0471 17.8923L16.6298 20.1161L18.387 15.6082L20.037 17.878ZM8.01788 15.1978H7.59912H7.18036V5.9593L8.01788 7.53896V15.1978ZM8.74654 6.65957L7.30097 3.914L9.5549 2.43235L8.74654 6.65957ZM10.7065 4.14261L12.313 6.93005L9.71991 8.60019L10.7065 4.14261ZM10.9636 10.2016L13.4068 8.61272L12.4503 12.9639L10.9636 10.2016ZM14.4396 10.0324L16.2412 12.6599L13.5325 14.3945L14.4396 10.0324ZM14.1615 16.3963L17.1885 14.3225L15.4647 18.9391L14.1615 16.3963ZM18.6416 24.3607L17.1818 21.7844L20.8059 19.1963L18.6416 24.3607ZM19.779 26.1909L22.2565 20.8514L24.2718 23.5995L19.779 26.1909ZM36.4953 21.8983H30.6322V16.8729H36.4953V21.8983Z" fill="#6544FB"/>
<path d="M1.31726 36.137H0.479736V37.8122H13.8809V36.137H12.2057V34.4619V33.6244H13.8809V31.9492H0.479736V33.6244H2.15488V36.137H1.31726Z" fill="#6544FB"/>
</svg>
