<svg width="11" height="13" viewBox="0 0 11 13" fill="none" xmlns="http://www.w3.org/2000/svg">
<path d="M7.14793 2.74987C8.05872 2.74987 8.79766 2.24605 8.79766 1.62506C8.79766 1.00407 8.05872 0.500244 7.14793 0.500244C6.23715 0.500244 5.49821 1.00407 5.49821 1.62506C5.49821 2.24605 6.23715 2.74987 7.14793 2.74987ZM10.3958 6.24381L9.59502 5.9673L9.26164 5.27835C8.75641 4.23321 7.34728 3.50209 5.74911 3.49974C4.51182 3.4974 3.82787 3.73642 2.54246 4.09027C1.80009 4.29414 1.19175 4.68079 0.834312 5.1729L0.604039 5.4916C0.335959 5.86185 0.552485 6.31177 1.09208 6.4969C1.62824 6.68202 2.28126 6.53205 2.55277 6.1618L2.78305 5.8431C2.90334 5.67906 3.10268 5.55018 3.35014 5.48222L4.27123 5.22914L3.74882 6.65156C3.5701 7.13898 3.76257 7.65686 4.26092 8.02945L6.31964 9.56201C6.56709 9.74713 6.74238 9.96975 6.83174 10.2111L7.46069 11.9288C7.60848 12.3295 8.2065 12.5756 8.79422 12.4748C9.38193 12.374 9.74281 11.9663 9.59502 11.5656L8.83202 9.47999C8.74266 9.23863 8.56738 9.01366 8.31992 8.83088L6.75613 7.66623L7.34728 6.05635L7.53631 6.443C7.71846 6.82028 8.11027 7.13195 8.62581 7.31004L9.42661 7.58656C9.96277 7.77168 10.6158 7.62171 10.8873 7.25146C11.1519 6.88355 10.9354 6.42894 10.3958 6.24381V6.24381ZM2.52871 9.54092C2.41873 9.73073 2.25376 9.90179 2.04067 10.0447L0.322211 11.2188C-0.107404 11.5117 -0.107404 11.9874 0.322211 12.2803C0.751826 12.5732 1.44608 12.5732 1.8757 12.2803L3.91723 10.8883C4.12688 10.7454 4.29185 10.5743 4.40527 10.3845L4.86926 9.59247C2.96864 8.17943 3.53917 8.61295 3.24016 8.33409L2.52871 9.54092V9.54092Z" fill="#0B315E"/>
</svg>
