<svg width="45" height="45" viewBox="0 0 45 45" fill="none" xmlns="http://www.w3.org/2000/svg">
<path d="M44.8746 5.41238C44.871 4.98082 44.6961 4.56836 44.3884 4.2659L43.6607 3.5501C42.6151 2.52187 41.2317 1.95557 39.7654 1.95557C38.2639 1.95557 36.8571 2.54508 35.8045 3.61519L35.1864 4.24355C34.7502 4.68682 34.1677 4.93114 33.5456 4.93114C32.9385 4.93114 32.3655 4.69659 31.9324 4.27067L31.3976 3.74451C30.352 2.71627 28.9686 2.14997 27.5023 2.14997C26.0008 2.14997 24.594 2.73949 23.541 3.80982L23.2348 4.12139C22.7987 4.56467 22.2161 4.80898 21.5941 4.80898C20.987 4.80898 20.414 4.57443 19.9811 4.14873L19.742 3.91331C18.6964 2.88508 17.313 2.31878 15.8467 2.31878C14.3452 2.31878 12.9384 2.9083 11.8856 3.97862C11.4495 4.4219 10.8669 4.66621 10.2449 4.66621C9.63778 4.66621 9.06475 4.43166 8.62994 4.00379L8.59371 3.96821C7.54811 2.93976 6.16469 2.37324 4.69839 2.37324C3.19693 2.37324 1.79008 2.96297 0.737761 4.03287L0.46763 4.30734C0.164735 4.61566 -0.00341887 5.03116 5.27043e-05 5.46294L0.127633 20.7945C0.177103 26.7536 2.53538 32.3461 6.76809 36.5415C10.9982 40.7343 16.6063 43.044 22.5594 43.0444L22.7497 43.0438C28.7427 42.9941 34.3573 40.6134 38.5596 36.3406C42.762 32.0677 45.0489 26.4143 44.9992 20.4215L44.8746 5.41238ZM14.3587 9.02021C14.7264 8.64637 15.2177 8.43807 15.7419 8.43395C16.8311 8.43395 17.7113 9.30705 17.72 10.3804C17.7246 10.904 17.5245 11.3985 17.1568 11.7723C16.7892 12.1464 16.298 12.3547 15.7736 12.3588C15.7692 12.3588 15.7621 12.3588 15.7577 12.3588C14.6844 12.3588 13.8041 11.4857 13.7954 10.4123C13.7909 9.88875 13.9909 9.39384 14.3587 9.02021ZM9.75364 18.728C8.21552 18.728 6.95382 17.4765 6.94124 15.9386C6.93495 15.1875 7.22157 14.4788 7.74838 13.9433C8.27519 13.4074 8.97927 13.1091 9.73065 13.103C9.73498 13.103 9.74952 13.103 9.75386 13.103C11.2918 13.103 12.5535 14.3543 12.566 15.8922C12.5789 17.4427 11.3278 18.715 9.77708 18.728C9.77252 18.728 9.7582 18.728 9.75364 18.728ZM35.6466 29.8893C35.6468 29.9225 35.647 29.9555 35.6418 29.9874C35.6388 30.0065 35.632 30.0241 35.627 30.0425C35.6194 30.0705 35.6121 30.0983 35.6003 30.1248C35.5923 30.143 35.5819 30.1597 35.5721 30.177C35.5585 30.2011 35.5448 30.2246 35.5281 30.2463C35.5157 30.2625 35.5018 30.2771 35.488 30.2918C35.4695 30.3113 35.4504 30.33 35.4292 30.3467C35.4129 30.3597 35.3962 30.3712 35.3786 30.3825C35.356 30.3971 35.3326 30.4096 35.3079 30.4209C35.2886 30.4298 35.2695 30.4374 35.2491 30.4439C35.223 30.4526 35.1961 30.458 35.1686 30.4628C35.1471 30.4665 35.126 30.47 35.1037 30.471C35.0939 30.4715 35.0848 30.4747 35.0751 30.4747C35.0397 30.4747 35.0037 30.4715 34.967 30.4647C34.7136 30.4181 34.4313 30.3296 34.146 30.1714C34.0034 30.0922 33.86 29.9957 33.719 29.8783C33.5782 29.7607 33.4397 29.6225 33.3069 29.4595C33.2304 29.3653 33.157 29.2681 33.0874 29.1686C32.8782 28.8702 32.6994 28.5513 32.5482 28.2358C32.4154 27.9589 32.3056 27.6864 32.2127 27.4306C32.188 27.3625 32.1644 27.2959 32.1422 27.2305C32.1212 27.1685 32.0997 27.1058 32.0808 27.047C32.0654 26.9988 32.0439 26.955 32.0199 26.9135C32.0138 26.9031 32.0075 26.8929 32.001 26.883C31.9762 26.8454 31.9491 26.8098 31.9183 26.779C31.9168 26.7775 31.9157 26.7756 31.9142 26.7743C31.8814 26.7421 31.845 26.715 31.807 26.6907C31.7975 26.6846 31.7877 26.6788 31.7777 26.6731C31.7417 26.6525 31.7042 26.6347 31.6649 26.6213C31.6612 26.62 31.6579 26.618 31.6543 26.6169C31.6117 26.6033 31.5677 26.5948 31.5232 26.5898C31.5121 26.5885 31.5009 26.5879 31.4896 26.5872C31.4479 26.5846 31.406 26.5851 31.3642 26.5907C31.3605 26.5911 31.3568 26.5909 31.3531 26.5916C31.3082 26.5983 31.2637 26.6111 31.2201 26.6276C31.2097 26.6315 31.1993 26.636 31.1888 26.6404C31.145 26.6595 31.1018 26.6818 31.0611 26.7115C30.5236 27.1025 29.9031 27.5143 29.2083 27.9123C29.0925 27.9787 28.9746 28.0444 28.8549 28.1099C28.6151 28.2408 28.3673 28.3692 28.1117 28.4944C27.6005 28.7446 27.0581 28.9811 26.4875 29.1931C26.0594 29.3521 25.6152 29.4977 25.1561 29.6255C24.8506 29.7105 24.6399 29.9714 24.6109 30.2656C24.6013 30.3636 24.6117 30.4654 24.6458 30.5654C24.7111 30.7583 24.7656 30.9453 24.8153 31.1276C24.8443 31.2341 24.8734 31.3411 24.8977 31.4413C24.9066 31.4778 24.9125 31.5142 24.9164 31.5503C24.9177 31.562 24.9177 31.5735 24.9185 31.5852C24.9203 31.6093 24.9216 31.6334 24.9211 31.6572C24.9209 31.6709 24.9196 31.6841 24.9188 31.6976C24.9172 31.7191 24.9155 31.7403 24.9125 31.7614C24.9105 31.775 24.9079 31.7887 24.9051 31.8024C24.9012 31.8226 24.8964 31.8425 24.891 31.8623C24.8873 31.8755 24.8834 31.8885 24.8793 31.9015C24.8728 31.9211 24.8654 31.9402 24.8576 31.9593C24.8526 31.9714 24.8476 31.9836 24.842 31.9955C24.8328 32.015 24.8224 32.0337 24.812 32.0523C24.8062 32.0628 24.8007 32.0734 24.7944 32.0834C24.781 32.1051 24.7662 32.1255 24.751 32.1456C24.7463 32.1519 24.7421 32.1587 24.7374 32.1647C24.7165 32.1908 24.6944 32.2155 24.6708 32.2389C24.6658 32.2439 24.6601 32.2481 24.6551 32.2528C24.636 32.2708 24.6165 32.2884 24.5959 32.3045C24.587 32.3116 24.5775 32.3177 24.5683 32.3244C24.5506 32.3372 24.5328 32.3498 24.5141 32.3611C24.5033 32.3678 24.4922 32.3737 24.4811 32.3798C24.4629 32.3897 24.4445 32.3993 24.4256 32.408C24.4136 32.4134 24.4015 32.4186 24.3893 32.4234C24.3703 32.4312 24.3507 32.4381 24.331 32.4444C24.3184 32.4485 24.3058 32.4524 24.293 32.4557C24.2724 32.4611 24.2514 32.4655 24.2303 32.4694C24.2177 32.4718 24.2054 32.4744 24.1926 32.4761C24.1693 32.4793 24.1457 32.4809 24.1218 32.4819C24.1108 32.4826 24.0997 32.4839 24.0886 32.4839C24.086 32.4839 24.0834 32.4843 24.0806 32.4843C24.0587 32.4843 24.0361 32.4819 24.014 32.48C24.0023 32.4791 23.9908 32.4793 23.979 32.4778C23.9432 32.4735 23.9072 32.4668 23.8712 32.4576C23.8701 32.4574 23.869 32.4574 23.8677 32.457C23.2563 32.2995 22.4474 32.0395 21.4986 31.6117C21.363 31.5505 21.2246 31.4858 21.0835 31.4177C20.3372 31.0571 19.7806 30.58 19.3671 30.0926C18.5467 30.0108 17.7715 29.8752 17.0442 29.7019C16.5592 29.5864 16.0958 29.4543 15.6544 29.3102C14.7718 29.0219 13.9781 28.6862 13.2799 28.3406C12.9931 28.1987 12.7266 28.0555 12.4725 27.9129C12.2627 27.7953 12.0601 27.6782 11.8733 27.5634C11.3224 27.2251 10.8724 26.906 10.53 26.6441C10.224 26.4102 10.0654 26.0533 10.0715 25.6924C10.0717 25.6853 10.0737 25.6783 10.0739 25.6712C10.078 25.5505 10.1025 25.4305 10.1442 25.314C10.1748 25.2281 10.2123 25.1437 10.264 25.0643C10.4516 24.7755 10.6923 24.4346 10.9904 24.0656C12.2825 22.466 14.654 20.3371 18.4616 19.6213C18.461 19.5968 18.4603 19.5697 18.4599 19.5406V19.5386C18.4593 19.4792 18.4593 19.4108 18.4612 19.3347C18.4632 19.2583 18.4666 19.1741 18.4727 19.0828C18.4788 18.9914 18.4872 18.8936 18.4987 18.7896C18.5046 18.7376 18.5111 18.6842 18.5187 18.6295C18.5337 18.5199 18.5523 18.4049 18.5753 18.2858C18.6096 18.107 18.6539 17.9185 18.7101 17.7237C18.7665 17.529 18.8351 17.3281 18.9186 17.1244C18.9485 17.0513 18.9796 16.9805 19.0117 16.9124C19.0438 16.844 19.0768 16.7781 19.1106 16.7145C19.2796 16.3966 19.4677 16.1369 19.6498 15.9284C19.6862 15.8868 19.7223 15.8471 19.7581 15.8095C19.7984 15.767 19.8425 15.7301 19.8889 15.6984C19.9045 15.6878 19.9217 15.6811 19.9379 15.6717C19.9698 15.6533 20.0015 15.6342 20.0351 15.6203C20.0555 15.6119 20.077 15.6077 20.0978 15.6012C20.1289 15.5915 20.1597 15.5806 20.1914 15.5748C20.2141 15.5704 20.2371 15.5702 20.2603 15.568C20.2864 15.5654 20.3124 15.5602 20.3387 15.5602C20.343 15.5602 20.3474 15.5615 20.3517 15.5615C20.384 15.562 20.4155 15.5674 20.4476 15.5717C20.4712 15.575 20.4951 15.5761 20.5185 15.5813C20.5515 15.5889 20.583 15.6014 20.6149 15.6132C20.6361 15.621 20.6581 15.6262 20.6787 15.6357C20.713 15.6518 20.7446 15.6737 20.7767 15.6947C20.793 15.7054 20.8104 15.7132 20.826 15.7253C20.8718 15.7607 20.9143 15.8015 20.9527 15.8479C20.9531 15.8486 20.9538 15.8488 20.9542 15.8494C21.015 15.9234 21.0816 16.0009 21.1536 16.0803C21.2254 16.1593 21.3027 16.2402 21.3854 16.3211C21.3858 16.3216 21.3862 16.322 21.3867 16.3224C21.4281 16.3632 21.4711 16.4038 21.5153 16.4446C21.5795 16.5034 21.6475 16.5618 21.7171 16.6195C21.7915 16.6811 21.8679 16.7416 21.9482 16.8002C22.0521 16.8757 22.1608 16.9482 22.2745 17.0157C22.6154 17.2183 22.9994 17.3774 23.4214 17.4477C24.2609 17.5874 25.0806 17.669 25.7177 17.7161C25.9301 17.7317 26.1221 17.7436 26.2879 17.7527C26.5502 17.7668 26.788 17.8838 26.959 18.0678C27.0616 18.1782 27.1399 18.3127 27.1853 18.4637C27.2384 18.641 27.2905 18.8389 27.3295 19.0398C27.3647 19.2206 27.3847 19.4275 27.3955 19.6324C27.4131 19.9665 27.4057 20.2941 27.3979 20.4898C27.5075 20.5319 27.6127 20.5764 27.7194 20.62C28.33 20.8698 28.8946 21.1414 29.4064 21.4241C30.0079 21.7563 30.5412 22.1015 31.0059 22.4383C31.0489 22.4695 31.0945 22.4925 31.1405 22.512C31.1502 22.5162 31.16 22.5205 31.17 22.5242C31.2151 22.5407 31.2609 22.5528 31.3071 22.5591C31.3149 22.5602 31.3225 22.56 31.3303 22.5609C31.3709 22.565 31.4112 22.5648 31.4514 22.5611C31.4622 22.5602 31.4733 22.5598 31.4841 22.5582C31.5299 22.552 31.5748 22.5413 31.6182 22.5259C31.6267 22.5229 31.6345 22.5185 31.643 22.5153C31.679 22.5007 31.7135 22.483 31.7465 22.4623C31.7567 22.4561 31.7669 22.4498 31.7766 22.443C31.8146 22.4161 31.8508 22.3864 31.8827 22.3515C31.8866 22.3471 31.8899 22.3421 31.8938 22.3376C31.9216 22.3059 31.9459 22.2705 31.9673 22.233C31.9739 22.2217 31.9802 22.2104 31.986 22.1985C32.0081 22.1538 32.0277 22.1069 32.0398 22.0553C32.2062 21.3608 32.4918 20.4959 32.9722 19.7725C33.4386 19.07 34.0347 18.7502 34.5315 18.6078C34.5851 18.5924 34.6381 18.5853 34.6895 18.585C34.6906 18.585 34.6917 18.5848 34.6927 18.5848C34.6932 18.5848 34.6934 18.5848 34.6938 18.5848C34.7427 18.5848 34.79 18.592 34.8355 18.6039C34.8505 18.6078 34.8639 18.6148 34.8785 18.6198C34.9084 18.6302 34.9379 18.6415 34.9655 18.6564C34.9813 18.6653 34.9954 18.6757 35.0104 18.6859C35.034 18.702 35.0568 18.7185 35.0781 18.7378C35.092 18.7506 35.1046 18.764 35.1171 18.7779C35.136 18.7988 35.1529 18.8205 35.1688 18.8437C35.1794 18.8593 35.1894 18.8749 35.1985 18.8916C35.2122 18.917 35.223 18.9433 35.233 18.9706C35.2393 18.988 35.246 19.0044 35.2508 19.0225C35.2588 19.0535 35.2623 19.0856 35.2649 19.1181C35.2662 19.1342 35.2697 19.1496 35.2695 19.1661C35.2695 19.2158 35.264 19.2666 35.2504 19.3182C35.1562 19.6721 35.0655 20.1019 35.0369 20.5217C35.0273 20.6617 35.0245 20.8005 35.0308 20.9351C35.0434 21.2039 35.0523 21.4647 35.0523 21.7138C35.0525 22.461 34.9739 23.1035 34.6799 23.5455C34.5788 23.6974 34.4469 23.8401 34.3044 23.9699C34.2126 24.0534 34.1438 24.1523 34.0982 24.2589C34.0527 24.3654 34.0303 24.4798 34.0312 24.5937C34.0329 24.8217 34.1271 25.0489 34.3139 25.2125C34.428 25.3123 34.5391 25.4236 34.6385 25.5453C34.7125 25.6358 34.7739 25.7406 34.8303 25.8515C34.9017 25.9916 34.9629 26.1437 35.011 26.3123C35.1258 26.7146 35.182 27.1904 35.2174 27.7083C35.2263 27.8379 35.2339 27.97 35.2406 28.1041C35.261 28.5063 35.3656 28.9386 35.4884 29.3222C35.5294 29.45 35.5724 29.5723 35.6149 29.6865C35.634 29.7375 35.6446 29.7884 35.6494 29.8388C35.6489 29.8566 35.6463 29.8726 35.6466 29.8893Z" fill="#6544FB"/>
</svg>
