<svg width="45" height="45" viewBox="0 0 45 45" fill="none" xmlns="http://www.w3.org/2000/svg">
<path d="M10.6348 6.02051H3.95508C3.22638 6.02051 2.63672 6.61017 2.63672 7.33887C2.63672 8.06757 3.22638 8.65723 3.95508 8.65723H10.6348C11.3635 8.65723 11.9531 8.06757 11.9531 7.33887C11.9531 6.61017 11.3635 6.02051 10.6348 6.02051Z" fill="#0B315E"/>
<path d="M10.6348 16.5674H3.95508C3.22638 16.5674 2.63672 17.157 2.63672 17.8857C2.63672 18.6144 3.22638 19.2041 3.95508 19.2041H10.6348C11.3635 19.2041 11.9531 18.6144 11.9531 17.8857C11.9531 17.157 11.3635 16.5674 10.6348 16.5674Z" fill="#0B315E"/>
<path d="M7.99805 11.2939H1.31836C0.589658 11.2939 0 11.8836 0 12.6123C0 13.341 0.589658 13.9307 1.31836 13.9307H7.99805C8.72675 13.9307 9.31641 13.341 9.31641 12.6123C9.31641 11.8836 8.72675 11.2939 7.99805 11.2939Z" fill="#0B315E"/>
<path d="M42.3633 17.8858H34.3653V12.6124C34.3653 10.2968 31.5326 9.0776 29.8635 10.7489L19.3174 21.295C18.2874 22.325 18.2874 23.9935 19.3174 25.0235L25.3633 31.0694L17.9991 38.4337C16.9691 39.4637 16.9691 41.1322 17.9991 42.1622C19.029 43.1921 20.6976 43.1922 21.7276 42.1622L30.9561 32.9337C31.9861 31.9037 31.9861 30.2352 30.9561 29.2052L24.9102 23.1593L29.0918 18.9776V20.5225C29.0918 21.9786 30.2725 23.1593 31.7285 23.1593H42.3633C43.8194 23.1593 45 21.9786 45 20.5225C45 19.0665 43.8194 17.8858 42.3633 17.8858Z" fill="#6544FB"/>
<path d="M24.6218 4.48587C23.5738 3.78934 22.1834 3.92715 21.295 4.81546L14.044 12.0664C13.014 13.0964 13.014 14.7649 14.044 15.7949C15.074 16.8249 16.7426 16.8248 17.7726 15.7948L23.4953 10.0721L25.4231 11.4608L27.9988 8.88506C28.4297 8.45422 28.9378 8.11979 29.4936 7.85867L24.6218 4.48587Z" fill="#6544FB"/>
<path d="M17.4532 26.8877C16.7851 26.2196 16.3392 25.3974 16.104 24.5083L2.17874 38.4336C1.14875 39.4636 1.14875 41.1321 2.17874 42.1621C3.20864 43.192 4.87725 43.1921 5.90724 42.1621L19.3174 28.7519L17.4532 26.8877Z" fill="#6544FB"/>
<path d="M35.6836 9.97559C37.8679 9.97559 39.6387 8.20484 39.6387 6.02051C39.6387 3.83618 37.8679 2.06543 35.6836 2.06543C33.4993 2.06543 31.7285 3.83618 31.7285 6.02051C31.7285 8.20484 33.4993 9.97559 35.6836 9.97559Z" fill="#6544FB"/>
</svg>
