<svg width="48" height="46" viewBox="0 0 48 46" fill="none" xmlns="http://www.w3.org/2000/svg">
<g clip-path="url(#clip0)">
<path d="M34.918 8.932C37.4987 8.932 39.5909 6.9325 39.5909 4.466C39.5909 1.9995 37.4987 0 34.918 0C32.3372 0 30.2451 1.9995 30.2451 4.466C30.2451 6.9325 32.3372 8.932 34.918 8.932Z" fill="#6544FB"/>
<path d="M44.116 37.5141C43.0048 37.2021 41.8445 37.8111 41.5212 38.8701C41.0179 40.5141 39.2088 41.4561 37.4886 40.9781L30.7273 39.0881L34.9398 31.6581C36.3471 29.1771 35.3824 26.0741 32.7844 24.7271L29.5983 23.0781C29.3451 22.9471 29.2499 22.6431 29.3891 22.4011L31.1521 19.2921L32.1336 20.7521C32.9131 21.9111 34.2335 22.5521 35.5864 22.5521C36.2697 22.5521 36.9623 22.3881 37.5985 22.0441L43.0415 19.1041C44.047 18.5601 44.4017 17.3401 43.8335 16.3781C43.2643 15.4171 41.9857 15.0771 40.9802 15.6211L35.6094 18.5231L33.2615 15.0331C33.3473 14.4701 33.319 13.8911 33.1464 13.3351C32.8315 12.3261 32.1126 11.4771 31.1427 10.9751C29.1243 9.93108 26.6048 10.6461 25.5114 12.5741L24.9736 13.5231L9.65439 6.46808L10.3355 5.11708C10.7122 4.37108 10.3837 3.47408 9.60312 3.11508C8.82256 2.75308 7.88401 3.06808 7.50943 3.81508L6.82827 5.16608L4.94175 4.29708C4.16015 3.93608 3.22265 4.25108 2.84702 4.99708C2.47034 5.74408 2.79889 6.64008 3.57944 6.99908L5.46492 7.86808L4.78481 9.21908C4.40813 9.96508 4.73668 10.8621 5.51723 11.2211C5.73696 11.3231 5.96924 11.3701 6.19734 11.3701C6.78119 11.3701 7.34202 11.0571 7.61197 10.5211L8.29312 9.17008L23.4763 16.1641L20.6858 21.0861C19.9418 22.3981 19.7723 23.9411 20.218 25.3741C20.6627 26.8071 21.685 28.0101 23.0599 28.7231L25.3942 29.9321C25.8535 30.1691 26.0241 30.7171 25.7761 31.1571L22.5723 36.8071L9.01195 33.0181C7.90284 32.7061 6.74038 33.3171 6.41602 34.3761C6.09166 35.4351 6.72783 36.5471 7.83693 36.8571L36.3147 44.8181C37.0094 45.0111 37.7094 45.1051 38.3989 45.1051C41.6164 45.1051 44.59 43.0911 45.538 39.9951C45.8613 38.9341 45.2262 37.8231 44.116 37.5141Z" fill="#6544FB"/>
</g>
<defs>
<clipPath id="clip0">
<rect width="47.1943" height="45.105" fill="white" transform="translate(0.55957)"/>
</clipPath>
</defs>
</svg>
