<svg width="45" height="45" viewBox="0 0 45 45" fill="none" xmlns="http://www.w3.org/2000/svg">
<path d="M41.924 36.1739H39.435V24.6584C39.435 23.9298 38.8443 23.3401 38.1166 23.3401C37.388 23.3401 36.7982 23.9298 36.7982 24.6584V25.6261H20.5358V24.6584C20.5358 23.9298 19.9452 23.3401 19.2175 23.3401C18.4889 23.3401 17.8991 23.9298 17.8991 24.6584V36.1739H15.4092C14.6814 36.1739 14.0908 36.7636 14.0908 37.4922C14.0908 38.22 14.6814 38.8106 15.4092 38.8106H16.3162V43.6815C16.3162 44.4092 16.906 44.9999 17.6346 44.9999C18.3623 44.9999 18.9529 44.4092 18.9529 43.6815V38.8106H38.3812V43.6815C38.3812 44.4092 38.9709 44.9999 39.6995 44.9999C40.4272 44.9999 41.0179 44.4092 41.0179 43.6815V38.8106H41.924C42.6518 38.8106 43.2424 38.22 43.2424 37.4922C43.2424 36.7636 42.6518 36.1739 41.924 36.1739ZM36.7982 36.1739H20.5358V33.5363H36.7982V36.1739ZM36.7982 30.8996H20.5358V28.2628H36.7982V30.8996Z" fill="#0B315E"/>
<path d="M11.7083 2.0373C10.0981 2.0373 10.4638 2.0373 8.81582 2.0373V1.31836C8.81582 0.590625 8.22607 0 7.49746 0C6.76972 0 6.1791 0.590625 6.1791 1.31836V2.0373C3.99326 2.0373 5.50674 2.0373 3.28662 2.0373C2.55889 2.0373 1.96826 2.62705 1.96826 3.35566C1.96826 4.0834 2.55889 4.67402 3.28662 4.67402H11.7083C12.4369 4.67402 13.0267 4.0834 13.0267 3.35566C13.0267 2.62705 12.4369 2.0373 11.7083 2.0373Z" fill="#6544FB"/>
<path d="M10.627 31.7198C10.5057 31.1019 9.96344 30.6563 9.33327 30.6563H8.6827L8.79722 12.9588C10.3415 12.4198 11.4524 10.9496 11.4524 9.22417V7.31079H3.54224V9.22417C3.54224 10.9358 4.63569 12.3967 6.1605 12.9462L6.04589 30.6563H5.37916C4.74898 30.6563 4.20669 31.1019 4.08541 31.7198L1.78267 43.4277C1.62403 44.2393 2.24462 45 3.07642 45H11.6361C12.4653 45 13.0888 44.2412 12.9298 43.4277L10.627 31.7198Z" fill="#6544FB"/>
</svg>
