<svg width="80" height="80" viewBox="0 0 80 80" fill="none" xmlns="http://www.w3.org/2000/svg">
<g filter="url(#filter0_b)">
<rect width="80" height="80" fill="#14142B"/>
<path fill-rule="evenodd" clip-rule="evenodd" d="M33.603 28.4256L33.5701 28.4234C32.0453 28.3524 29.8936 30.1858 29.0986 31.5119C28.2262 32.7034 28.2094 34.2858 28.9712 36.1162L29.0913 36.3926C31.0987 41.3362 38.6312 48.8593 43.5556 50.919C45.4397 51.8004 47.119 51.8165 48.442 50.8638C49.6053 50.1988 51.5129 47.9861 51.4578 46.4146C51.4054 45.7681 51.1049 45.2403 50.638 44.7598L50.5241 44.6466L50.2069 44.3533C49.0585 43.3264 47.0702 41.8643 46.4552 41.7351C45.7331 41.5846 45.2435 41.7193 44.4712 42.1451L44.1836 42.3087C43.6344 42.6254 43.438 42.6796 43.1779 42.5846C40.4303 41.4567 38.4928 39.5095 37.3574 36.7165C37.2836 36.5095 37.3201 36.3288 37.5589 35.8906L37.6848 35.6672C38.2053 34.758 38.3798 34.2441 38.2158 33.4527L38.1869 33.3501C37.9179 32.5671 36.2696 30.358 35.3544 29.3963L35.2069 29.2471C34.7299 28.7787 34.2054 28.4774 33.603 28.4256ZM33.4751 30.1165L33.5379 30.1286C33.6478 30.1596 33.7773 30.2357 33.9233 30.3611L34.0295 30.4583L34.2301 30.6694C35.0083 31.5286 36.5159 33.5548 36.5658 33.7971C36.6129 34.0245 36.5608 34.2146 36.3138 34.6626L36.1846 34.891C35.6409 35.8431 35.4726 36.457 35.7851 37.3252C37.1041 40.5719 39.3743 42.8534 42.572 44.1654C43.3967 44.4669 43.9813 44.3464 44.8097 43.8975L45.0934 43.7372C45.6554 43.4122 45.8612 43.3416 46.1117 43.3939C46.3565 43.4453 48.5468 45.0892 49.3497 45.8617L49.4435 45.9549C49.6505 46.1682 49.7638 46.367 49.7759 46.5145C49.7871 46.8593 49.4419 47.5069 48.8324 48.2138C48.3985 48.7171 47.8351 49.2316 47.5909 49.4022L47.5325 49.44C46.7433 50.0032 45.7687 50.0275 44.4798 49.4783L44.2345 49.3686C39.7822 47.5056 32.7805 40.5654 30.7582 36.0034L30.6384 35.7214C30.0118 34.3354 29.9598 33.3222 30.4097 32.5849L30.4999 32.4499C31.0214 31.5865 32.593 30.2264 33.3755 30.1218L33.4751 30.1165ZM42.8039 28.7036L42.9184 28.7086C47.4687 29.2165 51.062 32.8249 51.5734 37.399C51.6254 37.864 51.2927 38.2833 50.8302 38.3355C50.3677 38.3878 49.9507 38.0532 49.8987 37.5883C49.4753 33.8008 46.5 30.8131 42.7324 30.3926C42.2699 30.341 41.9366 29.9221 41.9879 29.4571C42.0307 29.0696 42.3271 28.7723 42.6924 28.7138L42.8039 28.7036ZM42.8729 32.7067L42.9866 32.7211C45.3121 33.1768 47.1293 35.0038 47.5825 37.3418C47.6716 37.801 47.3735 38.2458 46.9167 38.3354C46.4599 38.4249 46.0174 38.1251 45.9284 37.6659C45.6064 36.0052 44.316 34.7078 42.6642 34.3842C42.2074 34.2946 41.9093 33.8498 41.9983 33.3906C42.0725 33.0079 42.3922 32.7359 42.761 32.7077L42.8729 32.7067Z" fill="white"/>
</g>
<defs>
<filter id="filter0_b" x="-10" y="-10" width="100" height="100" filterUnits="userSpaceOnUse" color-interpolation-filters="sRGB">
<feFlood flood-opacity="0" result="BackgroundImageFix"/>
<feGaussianBlur in="BackgroundImage" stdDeviation="5"/>
<feComposite in2="SourceAlpha" operator="in" result="effect1_backgroundBlur"/>
<feBlend mode="normal" in="SourceGraphic" in2="effect1_backgroundBlur" result="shape"/>
</filter>
</defs>
</svg>
