<svg width="78" height="78" viewBox="0 0 78 78" fill="none" xmlns="http://www.w3.org/2000/svg">
<path fill-rule="evenodd" clip-rule="evenodd" d="M0 39C0 17.4609 17.4609 0 39 0C60.5391 0 78 17.4609 78 39C78 60.5391 60.5391 78 39 78C17.4609 78 0 60.5391 0 39Z" fill="#6544FB"/>
<path fill-rule="evenodd" clip-rule="evenodd" d="M51.3407 29.6907C50.4617 28.7698 49.0022 28.7698 48.1231 29.6907L35.1864 43.2268L29.8956 37.6316C28.9833 36.7281 27.557 36.7281 26.6448 37.6664C25.7823 38.6047 25.7823 40.099 26.6614 41.0547L33.478 48.1616L33.5776 48.2832C34.4732 49.2389 35.9161 49.2389 36.8117 48.2832L51.3407 33.0617C52.2198 32.1234 52.2198 30.6116 51.3407 29.6907Z" fill="white"/>
</svg>
