<svg width="45" height="45" viewBox="0 0 45 45" fill="none" xmlns="http://www.w3.org/2000/svg">
<path d="M17.898 36.6033H12.2359C11.7262 36.6033 11.3115 37.018 11.3115 37.5277V42.2653C11.3115 42.775 11.7262 43.1897 12.2359 43.1897H17.898C18.4077 43.1897 18.8224 42.775 18.8224 42.2653V37.5277C18.8224 37.018 18.4077 36.6033 17.898 36.6033Z" fill="#6544FB"/>
<path d="M29.9783 33.3772C30.1309 33.0905 30.0988 32.7359 29.8923 32.4289L23.9965 23.6614H25.817C26.1833 23.6614 26.4906 23.4923 26.6389 23.209C26.7881 22.9242 26.7514 22.5725 26.5408 22.2687L20.55 13.6084H22.4764C22.8546 13.6084 23.1549 13.444 23.3002 13.1573C23.445 12.8716 23.4006 12.5339 23.1783 12.2308L15.8445 2.2375C15.6453 1.96595 15.3514 1.8103 15.0383 1.8103C14.7241 1.8103 14.4292 1.96676 14.2294 2.23923L6.89547 12.2298C6.67304 12.533 6.62855 12.8709 6.77345 13.1569C6.91881 13.4438 7.21902 13.6083 7.59722 13.6083H9.51999L3.53327 22.2644C3.32216 22.5691 3.28542 22.9219 3.43529 23.208C3.584 23.492 3.89102 23.6615 4.25674 23.6615L6.07055 23.6618L0.181704 32.4346C-0.0243239 32.7408 -0.0566783 33.0938 0.0949252 33.3786C0.245489 33.6612 0.552509 33.8299 0.91638 33.8299H29.1575C29.5204 33.8299 29.8272 33.6608 29.9783 33.3772Z" fill="#6544FB"/>
<path d="M34.9999 37.6431H30.609C30.0993 37.6431 29.6846 38.0578 29.6846 38.5675V42.2651C29.6846 42.7748 30.0993 43.1895 30.609 43.1895H34.9999C35.5096 43.1895 35.9243 42.7748 35.9243 42.2651V38.5675C35.9243 38.0578 35.5096 37.6431 34.9999 37.6431Z" fill="#0B315E"/>
<path d="M44.8183 34.2031L40.2234 27.3591H41.3838C41.761 27.3591 42.0618 27.1977 42.2093 26.9162C42.3554 26.6373 42.3182 26.3028 42.1076 25.9987L37.452 19.2707H38.6845C39.2243 19.2707 39.4412 18.9576 39.5094 18.823C39.5771 18.6894 39.7005 18.3326 39.3862 17.904L33.5914 10.0139C33.3929 9.74344 33.0998 9.58813 32.7873 9.58813C32.4726 9.58813 32.177 9.74517 31.9762 10.0189L29.5066 13.3876C29.1696 13.8471 29.1696 14.5403 29.5068 15.0002L31.0305 17.0751H28.8592C28.4923 17.0751 28.1848 17.2438 28.0368 17.5265C27.8883 17.8103 27.9252 18.1609 28.1353 18.4641L34.1275 27.128H32.1667C31.7929 27.128 31.4923 27.2897 31.3421 27.5716C31.1927 27.8521 31.2254 28.1891 31.4324 28.4971L35.7234 34.8531C36 35.2646 36.5802 35.5632 37.1029 35.5632H44.0833C44.4585 35.5632 44.7594 35.4023 44.9088 35.1218C45.0569 34.8438 45.0239 34.5088 44.8183 34.2031Z" fill="#0B315E"/>
</svg>
