<svg width="18" height="11" viewBox="0 0 18 11" fill="none" xmlns="http://www.w3.org/2000/svg">
<path d="M15.0221 6.47406C15.6011 7.05675 16.2122 7.60498 16.7315 8.24642C16.9609 8.53147 17.1781 8.82562 17.3442 9.15643C17.5796 9.62668 17.3664 10.1442 16.9573 10.1722L14.4145 10.1711C13.7587 10.2272 13.2355 9.955 12.7956 9.49279C12.4435 9.12315 12.1175 8.72974 11.779 8.34763C11.6402 8.19145 11.4949 8.04449 11.3214 7.92833C10.9742 7.69607 10.6729 7.76719 10.4746 8.14037C10.2725 8.51995 10.2267 8.94025 10.2069 9.36327C10.1796 9.98048 9.99864 10.1427 9.39717 10.171C8.11176 10.2335 6.89185 10.033 5.75859 9.36463C4.75946 8.77538 3.98469 7.94352 3.31033 7.00178C1.99734 5.168 0.991847 3.15297 0.0881514 1.08149C-0.115263 0.614787 0.0334984 0.364261 0.53306 0.355394C1.3626 0.338783 2.19203 0.339965 3.02255 0.354212C3.3597 0.359296 3.5829 0.558629 3.71308 0.886949C4.16189 2.02448 4.71106 3.10674 5.40039 4.10991C5.58396 4.37699 5.77114 4.64407 6.0377 4.83205C6.33258 5.04019 6.5571 4.9712 6.69583 4.6326C6.78386 4.4179 6.8224 4.18664 6.84224 3.95669C6.90796 3.16556 6.91662 2.3758 6.80135 1.58745C6.73058 1.09544 6.46173 0.776937 5.98546 0.683832C5.74241 0.636364 5.7786 0.543141 5.89628 0.400144C6.10067 0.153519 6.2929 0 6.6761 0H9.54989C10.0023 0.0920407 10.1028 0.301541 10.1647 0.770789L10.1672 4.06126C10.1623 4.24292 10.2552 4.78198 10.5726 4.90222C10.8267 4.98782 10.9941 4.77832 11.1466 4.61226C11.8346 3.8595 12.3257 2.96989 12.7644 2.04872C12.9591 1.64367 13.1265 1.22301 13.2888 0.802711C13.409 0.490825 13.5976 0.337364 13.9384 0.344163L16.7043 0.346704C16.7863 0.346704 16.8693 0.347946 16.9487 0.361956C17.4148 0.443829 17.5425 0.650492 17.3985 1.11962C17.1717 1.85565 16.7304 2.46902 16.2989 3.08523C15.8377 3.74311 15.3444 4.37847 14.887 5.04025C14.4667 5.64457 14.5001 5.94919 15.0221 6.47406Z" fill="white"/>
</svg>
