<svg width="38" height="38" viewBox="0 0 38 38" fill="none" xmlns="http://www.w3.org/2000/svg">
<rect width="38" height="38" rx="19" fill="#4C77A6"/>
<path d="M25.0221 21.4741C25.6011 22.0568 26.2122 22.605 26.7315 23.2464C26.9609 23.5315 27.1781 23.8256 27.3442 24.1564C27.5796 24.6267 27.3664 25.1442 26.9573 25.1722L24.4145 25.1711C23.7587 25.2272 23.2355 24.955 22.7956 24.4928C22.4435 24.1231 22.1175 23.7297 21.779 23.3476C21.6402 23.1914 21.4949 23.0445 21.3214 22.9283C20.9742 22.6961 20.6729 22.7672 20.4746 23.1404C20.2725 23.5199 20.2267 23.9402 20.2069 24.3633C20.1796 24.9805 19.9986 25.1427 19.3972 25.171C18.1118 25.2335 16.8918 25.033 15.7586 24.3646C14.7595 23.7754 13.9847 22.9435 13.3103 22.0018C11.9973 20.168 10.9918 18.153 10.0882 16.0815C9.88474 15.6148 10.0335 15.3643 10.5331 15.3554C11.3626 15.3388 12.192 15.34 13.0226 15.3542C13.3597 15.3593 13.5829 15.5586 13.7131 15.8869C14.1619 17.0245 14.7111 18.1067 15.4004 19.1099C15.584 19.377 15.7711 19.6441 16.0377 19.832C16.3326 20.0402 16.5571 19.9712 16.6958 19.6326C16.7839 19.4179 16.8224 19.1866 16.8422 18.9567C16.908 18.1656 16.9166 17.3758 16.8014 16.5875C16.7306 16.0954 16.4617 15.7769 15.9855 15.6838C15.7424 15.6364 15.7786 15.5431 15.8963 15.4001C16.1007 15.1535 16.2929 15 16.6761 15H19.5499C20.0023 15.092 20.1028 15.3015 20.1647 15.7708L20.1672 19.0613C20.1623 19.2429 20.2552 19.782 20.5726 19.9022C20.8267 19.9878 20.9941 19.7783 21.1466 19.6123C21.8346 18.8595 22.3257 17.9699 22.7644 17.0487C22.9591 16.6437 23.1265 16.223 23.2888 15.8027C23.409 15.4908 23.5976 15.3374 23.9384 15.3442L26.7043 15.3467C26.7863 15.3467 26.8693 15.3479 26.9487 15.362C27.4148 15.4438 27.5425 15.6505 27.3985 16.1196C27.1717 16.8557 26.7304 17.469 26.2989 18.0852C25.8377 18.7431 25.3444 19.3785 24.887 20.0402C24.4667 20.6446 24.5001 20.9492 25.0221 21.4741Z" fill="white"/>
</svg>
